<svg width="293" height="276" viewBox="0 0 293 276" fill="none" xmlns="http://www.w3.org/2000/svg">
    <path
        d="M286.498 79.5658C285.763 79.3532 284.548 78.9042 284.008 78.3398C284.838 78.737 285.703 79.1687 286.498 79.5658Z"
        fill="#FAAAD5" />
    <path
        d="M339.859 70.81C338.855 59.5301 333.699 51.9717 325.575 44.7906C323.272 42.7712 302.618 27.8019 293.723 21.7627C288.812 18.4111 284.35 15.0233 278.713 13.1497C265.729 8.88194 258.966 12.5038 251.08 23.132C245.43 30.5183 228.918 55.3571 231.885 64.2873C233.167 68.2131 240.816 72.0212 246.93 69.0799C252.952 66.1229 257.771 60.3136 261.559 54.665C263.636 51.5614 265.951 52.0318 268.58 54.5208C274.747 59.9346 277.549 69.5149 280.823 74.8455C281.16 74.9905 291.006 79.8127 291.302 79.9627C294.87 79.9627 302.249 78.8282 309.667 85.5125C316.611 91.7592 320.379 103.928 327.271 102.162C330.396 101.333 333.36 97.9673 334.845 95.2781C334.914 95.2056 334.948 95.0985 335.018 94.9897C336.297 92.6474 337.024 90.0529 337.716 87.4939C339.195 81.9442 340.421 77.6583 339.859 70.81ZM239.805 62.3058C236.111 65.3847 232.23 62.8471 232.23 58.0174C232.23 57.5486 232.611 57.1523 233.095 57.1523C233.095 57.1523 233.095 57.1523 233.13 57.1523C233.58 57.1523 233.96 57.5486 233.96 58.0528C233.96 59.7657 234.815 61.1919 235.413 61.5486C236.042 62.0158 237.323 62.0726 238.698 60.8994C239.459 60.2502 240.082 59.3859 240.67 58.5571C243.05 55.2763 245.162 52.0351 241.949 49.692C239.889 48.0631 237.492 48.424 237.937 46.9171C238.11 46.4483 238.594 46.1962 239.044 46.3403C240.323 46.7729 241.742 47.2771 242.986 48.2147C244.439 49.3319 245.304 50.9171 245.339 52.4668C245.339 55.7229 241.342 60.9505 239.805 62.3058Z"
        fill="#FAAAD5" />
    <path
        d="M282.52 75.673C282.233 75.5231 280.342 74.56 279.961 74.4117C276.709 67.8535 272.802 61.6545 268.271 55.9243C267.96 55.5634 268.029 54.9875 268.375 54.6629C268.444 54.6275 268.513 54.555 268.582 54.5187C268.927 54.3745 269.343 54.4825 269.619 54.7708C274.703 61.2219 279.027 68.2135 282.52 75.673Z"
        fill="#559B36" />
    <path
        d="M285.633 82.9533C285.862 83.5745 285.42 84.2147 284.838 84.2147C283.772 84.2147 284.208 83.3685 281.172 76.9355C282.002 77.3673 282.832 77.7644 283.662 78.1599C284.354 79.7459 285.011 81.3319 285.633 82.9533Z"
        fill="#559B36" />
    <path
        d="M83.759 225.482L82.0297 252.509L73.8673 275.97L13.0666 234.058C11.7525 233.122 10.9223 231.572 10.9223 229.914C11.1935 221.431 10.2431 219.358 11.9597 217.193C11.8498 218.224 9.96157 216.197 58.0621 248.546C58.8979 249.2 59.9866 247.783 58.9959 247.032C10.3632 214.609 13.2445 216.364 12.8247 216.364C14.3468 215.231 12.1929 216.324 60.2412 202.525L76.0813 208.039L83.759 225.482Z"
        fill="#559B36" />
    <path
        d="M267.959 207.427C265.729 202.498 274.599 222.098 216.012 92.6479L206.293 100.145C204.287 101.694 201.452 101.225 199.964 99.1353C198.483 97.0475 198.859 94.154 200.898 92.5762L212.069 83.9278C211.899 83.5513 199.288 55.6797 200.068 57.4041C198.961 55.0264 196.539 53.6562 194.05 53.9808L5.07676 79.3511C1.30672 79.8553 -0.976026 83.8915 0.407694 87.5678L45.9566 206.599L71.0312 272.151C71.6195 273.664 72.7257 274.818 74.0398 275.43C77.7901 277.277 67.9934 278.366 264.396 215.788C267.786 214.707 269.446 210.743 267.959 207.427ZM209.06 112.865C209.06 111.892 209.821 111.1 210.755 111.1H216.773C217.707 111.1 218.468 111.892 218.468 112.865V119.136C218.468 120.109 217.707 120.865 216.773 120.865H210.755C209.822 120.865 209.06 120.109 209.06 119.136V112.865ZM206.328 222.707C103.583 257.189 108.253 255.717 107.899 255.717C106.889 255.717 106.715 254.316 107.622 253.952L205.775 221.014C206.954 220.662 207.36 222.376 206.328 222.707ZM228.221 184.976L93.6499 224.076C91.7475 224.653 89.7075 223.644 88.9461 221.733C81.5103 203.426 49.3463 119.784 40.6305 98.1977C39.6271 95.7836 41.1144 93.0804 43.6051 92.6842L176.654 70.5939C178.349 70.3418 180.009 71.2423 180.77 72.8637L230.641 179.39C231.68 181.624 230.538 184.291 228.221 184.976Z"
        fill="#C9FF90" />
    <path
        d="M110.684 175.984C116.194 167.361 146.622 117.463 153.162 102.72C153.807 101.249 155.843 101.529 156.133 103.099C158.61 116.316 173.908 153.762 175.584 159.609C175.848 160.528 175.292 161.414 174.439 161.641L112.434 178.485C110.973 178.857 109.886 177.229 110.684 175.984ZM154.514 104.057C147.521 119.376 118.262 167.404 112.344 176.712L173.896 159.882C171.212 152.064 157.199 117.186 154.514 104.057Z"
        fill="#559B36" />
    <path
        d="M139.854 121.44C134.216 106.809 117.788 98.0522 103.124 102.017C88.4598 105.945 81.2321 121.045 86.869 135.675C92.5754 150.45 109.004 159.171 123.667 155.244C138.297 151.315 145.56 136.18 139.854 121.44ZM109.314 110.269C102.035 112.019 96.4498 118.412 95.7912 126.486C95.705 127.657 93.9781 127.567 94.0619 126.342C94.7838 117.544 100.881 110.379 108.933 108.539C109.954 108.236 110.501 109.984 109.314 110.269Z"
        fill="#FBD072" />
    <path
        d="M86.05 136.028C83.2137 128.669 83.4146 120.975 86.624 114.359C97.202 92.5412 131.317 96.8369 140.674 121.083C140.853 121.555 140.636 122.093 140.18 122.284C139.73 122.464 139.215 122.241 139.027 121.769C130.153 98.7583 98.0227 94.9543 88.2046 115.188C85.23 121.326 85.0474 128.483 87.6962 135.344C88.1279 136.477 86.4951 137.159 86.05 136.028Z"
        fill="#559B36" />
    <path
        d="M214.422 109.939C221.982 100.256 232.424 94.4891 247.282 91.8007C248.426 91.561 248.746 93.4081 247.586 93.6174C233.174 96.23 223.072 101.784 215.798 111.106C215.067 112.033 213.678 110.898 214.422 109.939Z"
        fill="#559B36" />
    <path
        d="M93.6186 178.886C88.5312 167.293 89.1606 148.207 98.2046 138.275C103.015 132.995 110.14 129.954 117.033 130.174C126.54 130.451 133.99 136.098 141.194 141.562C144.66 144.189 148.246 146.906 151.964 148.928C160.807 153.728 170.671 155.058 179.712 152.679C193.665 149.009 200.891 133.147 207.467 121.052L208.131 120.022C208.78 119.007 210.253 120.041 209.598 121.052L208.972 122.022C201.902 135.074 194.675 150.651 180.149 154.466C170.676 156.96 160.376 155.576 151.149 150.563C147.31 148.481 143.671 145.72 140.154 143.054C133.168 137.756 125.943 132.279 116.985 132.019C110.403 131.807 103.96 134.642 99.4919 139.544C90.9357 148.935 90.3822 167.073 95.2308 178.122C95.7194 179.227 94.1032 180.001 93.6186 178.886Z"
        fill="#559B36" />
    <path
        d="M149.998 142.936V149.197C149.998 150.17 149.24 150.961 148.305 150.961H142.296C141.362 150.961 140.604 150.171 140.604 149.197V142.936C140.604 141.962 141.361 141.172 142.296 141.172H148.305C149.24 141.172 149.998 141.961 149.998 142.936Z"
        fill="#C9FF90" />
    <path
        d="M99.154 176.246V182.507C99.154 183.481 98.3966 184.271 97.4612 184.271H91.4527C90.518 184.271 89.7598 183.482 89.7598 182.507V176.246C89.7598 175.273 90.5173 174.482 91.4527 174.482H97.4612C98.3958 174.483 99.154 175.273 99.154 176.246Z"
        fill="#C9FF90" />
    <path
        d="M88.1283 222.107C84.4626 213.087 74.9687 188.639 64.9142 162.753C54.7458 136.579 44.2319 109.512 39.8016 98.5637C39.3485 97.4474 40.9734 96.7157 41.4344 97.8502C45.8686 108.809 56.3857 135.88 66.5541 162.062C76.6046 187.941 86.0985 212.382 89.761 221.387C90.2157 222.507 88.5963 223.233 88.1283 222.107Z"
        fill="#559B36" />
    <path
        d="M229.828 179.783L179.973 73.2531C179.461 72.1589 181.056 71.3433 181.564 72.4456L231.419 178.976C231.935 180.079 230.337 180.878 229.828 179.783Z"
        fill="#559B36" />
    <path
        d="M24.2007 125.971L41.7146 121.412C42.7916 121.068 43.3205 122.895 42.1432 123.2L24.6292 127.759C23.5349 128.084 23.036 126.272 24.2007 125.971Z"
        fill="#559B36" />
    <path
        d="M30.039 140.072L47.5529 135.509C48.6236 135.158 49.1628 136.991 47.9815 137.297L30.4676 141.86C29.3574 142.19 28.8885 140.369 30.039 140.072Z"
        fill="#559B36" />
    <path
        d="M55.8659 158.764C56.1885 163.009 53.2906 166.468 49.3916 166.468C45.4927 166.468 42.0698 163.009 41.7472 158.764C41.4246 154.519 44.3248 151.086 48.223 151.086C52.1211 151.086 55.544 154.519 55.8659 158.764Z"
        fill="#C9FF90" />
    <path
        d="M55.8629 159.682C55.4028 159.682 55.0153 159.315 54.9813 158.832C54.6943 155.069 51.6612 152.007 48.2201 152.007C47.0498 152.007 47.0483 150.162 48.2201 150.162C52.5642 150.162 56.3888 153.986 56.7454 158.689C56.7833 159.197 56.4204 159.64 55.9325 159.68C55.908 159.682 55.8835 159.682 55.8629 159.682Z"
        fill="#559B36" />
    <path
        d="M49.3896 167.389C45.0455 167.389 41.2209 163.552 40.8643 158.834C40.7797 157.699 42.5279 157.348 42.6283 158.69C42.9154 162.47 45.9485 165.544 49.3896 165.544C50.5598 165.545 50.5606 167.389 49.3896 167.389Z"
        fill="#559B36" />
    <path
        d="M47.5091 181.281L65.023 176.718C66.1174 176.387 66.6171 178.204 65.4516 178.506L47.9384 183.068C46.8283 183.399 46.3594 181.578 47.5091 181.281Z"
        fill="#559B36" />
    <path
        d="M53.0261 196.086C51.9903 196.086 51.8021 194.53 52.8118 194.269L70.3258 189.707C71.398 189.356 71.9357 191.189 70.7544 191.494C53.8524 195.889 53.3804 196.086 53.0261 196.086Z"
        fill="#559B36" />
    <path
        d="M62.909 249.196L256.137 186.8C257.321 186.483 257.74 188.217 256.663 188.566L63.4348 250.961C62.2694 251.301 61.8226 249.547 62.909 249.196Z"
        fill="#559B36" />
    <path
        d="M170.254 136.975H170.219L170.184 137.011L153.203 143.534L147.946 145.588L145.352 146.561C144.903 146.741 144.522 146.201 144.799 145.84L146.39 143.534C146.644 143.163 155.9 129.707 155.313 130.56C155.444 130.97 156.317 133.236 157.284 135.354C157.715 136.364 159.358 135.728 158.84 134.561C158.645 134.133 156.781 129.936 156.869 129.479C156.904 129.155 156.799 128.867 156.592 128.687L160.708 122.741C160.708 122.704 160.743 122.704 160.743 122.704C160.916 122.452 161.296 122.452 161.503 122.741L170.426 136.255C170.599 136.471 170.531 136.831 170.254 136.975Z"
        fill="#FBD072" />
    <path
        d="M250.387 76.1445C250.664 76.1445 250.941 76.1445 251.252 76.217L243.609 81.9472C243.609 78.4037 247.459 76.1445 250.387 76.1445Z"
        fill="#559B36" />
    <path
        d="M280.997 21.9439C280.541 22.3246 160.969 122.121 160.745 122.704C160.745 122.704 160.71 122.704 160.71 122.74C158.877 126.668 166.105 137.732 170.221 136.975H170.256C170.533 136.938 170.775 136.83 171.052 136.65C171.411 136.38 242.42 82.8595 242.056 83.1355C241.216 79.3422 243.806 76.3202 247.347 74.9187C249.353 74.1262 251.394 74.2341 253.226 74.7383C313.704 29.1555 292.845 44.8771 297.357 41.476C311.467 28.6463 295.143 9.11423 280.997 21.9439ZM182.395 124.109C179.628 120.903 177.414 117.19 175.824 113.19C174.049 108.873 177.228 109.533 177.034 110.848C176.964 111.352 177.172 111.929 177.414 112.506C178.936 116.326 181.046 119.821 183.709 122.921C184.461 123.878 183.113 125.008 182.395 124.109ZM187.894 116.578C185.3 113.442 183.017 110.019 181.115 106.415C180.536 105.381 182.023 104.516 182.602 105.55C184.47 109.046 186.718 112.361 189.208 115.388C189.963 116.349 188.611 117.473 187.894 116.578ZM229.88 81.9095C229.525 82.1839 204.712 101.367 206.293 100.145C204.287 101.695 201.452 101.226 199.964 99.1355C198.483 97.0478 198.859 94.1542 200.897 92.5765L212.068 83.928L224.485 74.342C226.491 72.7923 229.327 73.2248 230.814 75.315C232.301 77.4053 231.886 80.3606 229.88 81.9095Z"
        fill="#559B36" />
    <path
        d="M147.933 145.583L145.349 146.568C144.911 146.736 144.518 146.207 144.796 145.823L146.388 143.516C146.871 144.237 147.379 144.934 147.933 145.583Z"
        fill="#559B36" />
    <path
        d="M257.376 79.0983C257.306 82.8825 256.477 86.1978 254.747 89.2611C254.54 89.6211 254.159 89.837 253.745 89.7299C241.476 87.278 241.312 79.1049 247.969 76.6126C250.788 75.4097 254.216 76.7453 256.857 78.2341C257.168 78.4145 257.376 78.7745 257.376 79.0983Z"
        fill="#FAAAD5" />
    <path
        d="M326.58 58.0899C322.499 56.6481 318.694 61.0444 314.51 62.0537C306.705 63.8366 300.061 53.9976 295.177 55.423C293.689 55.8193 292.617 57.0806 291.649 58.2695C287.18 63.6075 284.362 66.3717 284.593 69.4053L287.533 78.1262C292.462 80.4974 292.869 80.7734 295.487 82.0908C296.59 82.6222 295.608 84.289 294.727 83.676C284.067 78.235 284.118 78.5695 283.763 78.1979C283.693 78.1616 283.625 78.1254 283.59 78.0537C283.625 78.0891 283.625 78.1254 283.659 78.1616C283.303 77.9919 271.228 72.078 263.738 68.6481C263.21 68.4364 263.015 67.671 263.496 67.1709C262.861 66.8405 257.26 64.9941 253.604 64.3243C239.163 61.6763 233.301 70.0257 235.551 78.8834C239.304 94.53 259.923 100.967 274.874 106.488C296.495 114.599 301.154 116.831 310.704 115.749C315.512 115.245 320.284 113.803 324.123 110.74C330.527 105.707 337.192 94.0958 337.647 82.7392C338.154 69.4094 330.522 59.3447 326.58 58.0899ZM256.234 90.1633C255.714 91.091 254.659 91.7526 253.433 91.4964C239.75 88.9695 238.93 78.2498 247.346 74.9196C250.763 73.5693 254.467 74.7861 257.686 76.649C258.552 77.1178 259.105 78.09 259.105 79.1355C259.035 83.208 258.102 86.8117 256.234 90.1633Z"
        fill="#FAAAD5" />
    <path
        d="M58.3248 89.2694L165.388 71.2294C166.582 71.0647 166.8 72.8583 165.672 73.0527L58.6087 91.0927C57.425 91.269 57.1886 89.4655 58.3248 89.2694Z"
        fill="#559B36" />
    <path
        d="M145.946 197.894L218.299 177.154C219.454 176.84 219.882 178.61 218.769 178.935L146.417 199.675C145.271 199.986 144.828 198.22 145.946 197.894Z"
        fill="#559B36" />
    <path
        d="M194.153 35.593C193.537 29.2144 192.901 22.6191 190.843 16.5148C188.588 9.81575 184.742 4.56507 180.015 1.73581C178.995 1.13189 179.882 -0.473878 180.893 0.135804C185.991 3.18422 190.12 8.78506 192.517 15.9019C194.641 22.2154 195.291 28.9219 195.917 35.4051C196.033 36.6294 194.277 36.8123 194.153 35.593Z"
        fill="#559B36" />
    <path
        d="M208.166 27.1009L210.203 9.07156C210.335 7.86867 212.101 8.07135 211.96 9.28742L209.923 27.3167C209.787 28.5443 208.026 28.3103 208.166 27.1009Z"
        fill="#559B36" />
    <path
        d="M217.666 33.8137C216.002 26.1844 216.483 17.9282 219.028 10.5584C220.083 7.51 221.754 5.83008 223.732 5.83008C224.903 5.83008 224.904 7.67478 223.732 7.67478C222.145 7.67478 221.149 9.87293 220.696 11.1846C218.265 18.2231 217.801 26.1152 219.395 33.4017C219.654 34.6022 217.923 34.996 217.666 33.8137Z"
        fill="#559B36" />
    <path
        d="M277.746 177.514C270.993 169.877 273.744 157.097 281.229 153.967C280.377 143.289 288.792 135.25 298.871 133.595C300.063 133.424 300.281 135.232 299.148 135.419C290.029 136.914 282.418 144.01 282.958 153.459C289.418 152.333 292.957 159.239 289.74 163.207C286.65 167.032 282.438 160.781 281.484 155.863C275.376 158.886 273.289 169.756 279.046 176.26C279.841 177.156 278.542 178.41 277.746 177.514ZM283.172 155.293C283.591 157.621 284.552 159.78 286.032 161.488C286.558 162.096 287.305 162.666 287.838 162.475C289.189 161.957 289.847 158.611 287.928 156.651C286.78 155.473 284.957 154.983 283.172 155.293Z"
        fill="#559B36" />
    <path
        d="M95.0182 268.681L221.141 228.049C222.324 227.728 222.744 229.465 221.667 229.815L95.544 270.447C94.3627 270.778 93.9381 269.031 95.0182 268.681Z"
        fill="#559B36" />
    <path
        d="M24.0877 74.6432L187.621 52.3362C188.784 52.1928 189.011 54.0029 187.85 54.1669L24.3154 76.4739C23.1072 76.5884 22.9609 74.8022 24.0877 74.6432Z"
        fill="#559B36" />
</svg>
    