<svg width="196" height="49" viewBox="0 0 196 49" fill="none" xmlns="http://www.w3.org/2000/svg">
    <path
        d="M28.2165 12.3622C30.8873 8.64389 33.2108 4.70455 35.0328 0.555334C35.148 0.293454 34.9548 0 34.6688 0H26.831C26.6118 0 26.4354 0.176444 26.4354 0.395606V4.66369C26.4354 7.0169 26.0416 9.3311 25.295 11.5171C25.2132 11.7567 25.3674 12.0093 25.6181 12.0409C26.3592 12.1319 27.078 12.2898 27.7708 12.5089C27.9361 12.5609 28.1144 12.5052 28.2165 12.3641V12.3622Z"
        fill="#6BBE46" />
    <path
        d="M47.6696 13.191C43.5204 15.0149 39.5811 17.3365 35.8628 20.0074C35.7216 20.1076 35.6659 20.2878 35.7179 20.4531C35.9389 21.157 36.0986 21.8888 36.1896 22.641C36.2194 22.8936 36.4757 23.0478 36.7153 22.9642C38.931 22.1934 41.2787 21.7885 43.669 21.7885H47.8294C48.0485 21.7885 48.225 21.6102 48.225 21.3929V13.5551C48.225 13.2691 47.9315 13.0759 47.6696 13.191Z"
        fill="#6BBE46" />
    <path
        d="M39.4588 0.248879C36.2698 8.25386 31.1344 16.0787 24.1342 23.5803C24.0729 23.6472 24.0376 23.7345 24.0376 23.8255C24.0376 24.0242 24.1992 24.1858 24.3979 24.1858C24.4889 24.1858 24.5762 24.1505 24.6431 24.0892C32.1466 17.0891 39.9696 11.9536 47.9745 8.76462C48.125 8.70518 48.2234 8.56032 48.2234 8.39873V0.395606C48.2234 0.176444 48.0451 0 47.8278 0H39.8247C39.6631 0 39.5182 0.0984371 39.4588 0.248879Z"
        fill="#6BBE46" />
    <path
        d="M43.6692 25.751C41.0132 25.751 38.4501 26.3509 36.1304 27.4838C35.9001 27.5953 35.7236 27.7977 35.6419 28.0392C33.935 33.0873 29.0095 36.6663 23.3187 36.3172C17.2044 35.942 12.2733 31.0016 11.9093 24.8873C11.5694 19.1854 15.1707 14.258 20.2411 12.5697C20.4882 12.4879 20.6943 12.3059 20.8058 12.0701C21.896 9.78557 22.4736 7.27078 22.4736 4.66498V1.19739C22.4736 0.610484 21.9647 0.146158 21.3815 0.211163C9.16975 1.58185 -0.308077 12.1146 0.0076644 24.7554C0.327121 37.517 10.7076 47.8974 23.4691 48.2169C36.1099 48.5326 46.6427 39.053 48.0134 26.8431C48.0784 26.2599 47.6141 25.751 47.0272 25.751H43.6692Z"
        fill="#07302C" />
    <path
        d="M98.0192 41.0669H92.2819C92.1686 41.0669 92.0776 40.9759 92.0776 40.8626V27.0832C92.0776 21.1789 96.8639 16.3926 102.768 16.3926H103.647C103.76 16.3926 103.851 16.4836 103.851 16.5969V22.3341C103.851 22.4474 103.76 22.5384 103.647 22.5384H102.768C100.259 22.5384 98.2253 24.5721 98.2253 27.0814V40.8607C98.2253 40.974 98.1343 41.065 98.021 41.065L98.0192 41.0669Z"
        fill="#07302C" />
    <path
        d="M121.272 16.4269C118.835 16.3563 116.547 16.9915 114.598 18.1412V7.09395C114.598 6.98066 114.507 6.88965 114.394 6.88965H108.657C108.544 6.88965 108.453 6.98066 108.453 7.09395V40.8616C108.453 40.9749 108.544 41.0659 108.657 41.0659H114.394C114.507 41.0659 114.598 40.9749 114.598 40.8616V39.9664C114.598 39.8104 114.766 39.7119 114.901 39.7862C116.684 40.7706 118.731 41.3334 120.908 41.3334C127.941 41.3334 133.632 35.4736 133.355 28.3805C133.101 21.867 127.789 16.6126 121.272 16.425V16.4269ZM120.908 35.1875C117.429 35.1875 114.598 32.357 114.598 28.8783C114.598 25.3995 117.429 22.569 120.908 22.569C124.386 22.569 127.217 25.3995 127.217 28.8783C127.217 32.357 124.386 35.1875 120.908 35.1875Z"
        fill="#07302C" />
    <path
        d="M154.656 11.79H148.917C148.804 11.79 148.713 11.8815 148.713 11.9943V40.8624C148.713 40.9753 148.804 41.0667 148.917 41.0667H154.656C154.769 41.0667 154.861 40.9753 154.861 40.8624V11.9943C154.861 11.8815 154.769 11.79 154.656 11.79Z"
        fill="#07302C" />
    <path
        d="M165.405 6.8877H159.666C159.553 6.8877 159.462 6.97917 159.462 7.092V40.8615C159.462 40.9743 159.553 41.0658 159.666 41.0658H165.405C165.518 41.0658 165.61 40.9743 165.61 40.8615V7.092C165.61 6.97917 165.518 6.8877 165.405 6.8877Z"
        fill="#07302C" />
    <path
        d="M143.908 23.9756H138.169C138.056 23.9756 137.964 24.0671 137.964 24.1799V40.8603C137.964 40.9732 138.056 41.0646 138.169 41.0646H143.908C144.021 41.0646 144.112 40.9732 144.112 40.8603V24.1799C144.112 24.0671 144.021 23.9756 143.908 23.9756Z"
        fill="#07302C" />
    <path
        d="M143.908 16.6875H138.169C138.056 16.6875 137.965 16.779 137.965 16.8918V20.9314C137.965 21.0443 138.056 21.1357 138.169 21.1357H143.908C144.021 21.1357 144.113 21.0443 144.113 20.9314V16.8918C144.113 16.779 144.021 16.6875 143.908 16.6875Z"
        fill="#07302C" />
    <path
        d="M182.666 41.3358C175.798 41.3358 170.209 35.7471 170.209 28.8788C170.209 22.0105 175.798 16.4219 182.666 16.4219C189.535 16.4219 195.123 22.0105 195.123 28.8788C195.123 35.7471 189.535 41.3358 182.666 41.3358ZM182.666 22.5696C179.188 22.5696 176.357 25.4001 176.357 28.8788C176.357 32.3575 179.188 35.1881 182.666 35.1881C186.145 35.1881 188.976 32.3575 188.976 28.8788C188.976 25.4001 186.145 22.5696 182.666 22.5696Z"
        fill="#07302C" />
    <path
        d="M182.666 41.3358C175.798 41.3358 170.209 35.7471 170.209 28.8788C170.209 22.0105 175.798 16.4219 182.666 16.4219C189.535 16.4219 195.123 22.0105 195.123 28.8788C195.123 35.7471 189.535 41.3358 182.666 41.3358ZM182.666 22.5696C179.188 22.5696 176.357 25.4001 176.357 28.8788C176.357 32.3575 179.188 35.1881 182.666 35.1881C186.145 35.1881 188.976 32.3575 188.976 28.8788C188.976 25.4001 186.145 22.5696 182.666 22.5696Z"
        fill="#07302C" />
    <path
        d="M75.0194 41.3358C68.1511 41.3358 62.5625 35.7471 62.5625 28.8788C62.5625 22.0105 68.1511 16.4219 75.0194 16.4219C81.8878 16.4219 87.4764 22.0105 87.4764 28.8788C87.4764 35.7471 81.8878 41.3358 75.0194 41.3358ZM75.0194 22.5696C71.5407 22.5696 68.7102 25.4001 68.7102 28.8788C68.7102 32.3575 71.5407 35.1881 75.0194 35.1881C78.4982 35.1881 81.3287 32.3575 81.3287 28.8788C81.3287 25.4001 78.4982 22.5696 75.0194 22.5696Z"
        fill="#07302C" />
    <path
        d="M75.0194 41.3358C68.1511 41.3358 62.5625 35.7471 62.5625 28.8788C62.5625 22.0105 68.1511 16.4219 75.0194 16.4219C81.8878 16.4219 87.4764 22.0105 87.4764 28.8788C87.4764 35.7471 81.8878 41.3358 75.0194 41.3358ZM75.0194 22.5696C71.5407 22.5696 68.7102 25.4001 68.7102 28.8788C68.7102 32.3575 71.5407 35.1881 75.0194 35.1881C78.4982 35.1881 81.3287 32.3575 81.3287 28.8788C81.3287 25.4001 78.4982 22.5696 75.0194 22.5696Z"
        fill="#07302C" />
</svg>
    