<svg width="412" height="152" viewBox="0 0 412 152" fill="none" xmlns="http://www.w3.org/2000/svg">
    <g opacity="0.1" clip-path="url(#clip0_806_232)" filter="url(#filter0_f_806_232)">
    <path d="M115.246 135.381H94.9517C94.5506 135.381 94.2252 135.056 94.2252 134.656V86.0048C94.2252 65.1567 111.156 48.2598 132.037 48.2598H135.143C135.545 48.2598 135.87 48.5846 135.87 48.9851V69.2439C135.87 69.6444 135.545 69.9692 135.143 69.9692H132.037C123.163 69.9692 115.969 77.1503 115.969 86.0086V134.659C115.969 135.06 115.644 135.385 115.242 135.385L115.246 135.381Z" fill="white"/>
    <path d="M190.281 48.3847C182.005 48.1354 174.217 50.179 167.508 53.9263C167.103 54.153 166.615 53.8696 166.615 53.4088V15.4333C166.615 15.0329 166.289 14.708 165.888 14.708H145.594C145.193 14.708 144.867 15.0329 144.867 15.4333V134.66C144.867 135.06 145.193 135.385 145.594 135.385H165.888C166.289 135.385 166.615 135.06 166.615 134.66V131.502C166.615 130.946 167.209 130.606 167.697 130.875C173.998 134.35 181.237 136.333 188.93 136.333C213.641 136.333 233.667 115.919 232.974 91.0972C232.327 68.0089 213.414 49.0835 190.285 48.3885L190.281 48.3847ZM188.926 114.624C176.62 114.624 166.611 104.632 166.611 92.3475C166.611 80.063 176.62 70.0715 188.926 70.0715C201.232 70.0715 211.242 80.063 211.242 92.3475C211.242 104.632 201.229 114.624 188.926 114.624Z" fill="white"/>
    <path d="M293.746 32.0098H273.455C273.054 32.0098 272.729 32.3345 272.729 32.7351V134.657C272.729 135.057 273.054 135.382 273.455 135.382H293.746C294.147 135.382 294.473 135.057 294.473 134.657V32.7351C294.473 32.3345 294.147 32.0098 293.746 32.0098Z" fill="white"/>
    <path d="M324.488 14.708H304.197C303.796 14.708 303.47 15.0327 303.47 15.4333V134.656C303.47 135.056 303.796 135.381 304.197 135.381H324.488C324.889 135.381 325.214 135.056 325.214 134.656V15.4333C325.214 15.0327 324.889 14.708 324.488 14.708Z" fill="white"/>
    <path d="M263.005 75.0469H242.715C242.313 75.0469 241.988 75.3716 241.988 75.7722V134.66C241.988 135.061 242.313 135.385 242.715 135.385H263.005C263.407 135.385 263.732 135.061 263.732 134.66V75.7722C263.732 75.3716 263.407 75.0469 263.005 75.0469Z" fill="white"/>
    <path d="M263.006 49.3145H242.715C242.313 49.3145 241.988 49.6392 241.988 50.0397V64.2961C241.988 64.6967 242.313 65.0214 242.715 65.0214H263.006C263.407 65.0214 263.732 64.6967 263.732 64.2961V50.0397C263.732 49.6392 263.407 49.3145 263.006 49.3145Z" fill="white"/>
    <path d="M378.27 136.329C353.975 136.329 334.21 116.599 334.21 92.347C334.21 68.0953 353.975 48.3652 378.27 48.3652C402.564 48.3652 422.329 68.0953 422.329 92.347C422.329 116.599 402.564 136.329 378.27 136.329ZM378.27 70.0709C365.964 70.0709 355.954 80.0625 355.954 92.347C355.954 104.632 365.964 114.623 378.27 114.623C390.576 114.623 400.585 104.632 400.585 92.347C400.585 80.0625 390.572 70.0709 378.27 70.0709Z" fill="white"/>
    <path d="M378.27 136.329C353.975 136.329 334.21 116.599 334.21 92.347C334.21 68.0953 353.975 48.3652 378.27 48.3652C402.564 48.3652 422.329 68.0953 422.329 92.347C422.329 116.599 402.564 136.329 378.27 136.329ZM378.27 70.0709C365.964 70.0709 355.954 80.0625 355.954 92.347C355.954 104.632 365.964 114.623 378.27 114.623C390.576 114.623 400.585 104.632 400.585 92.347C400.585 80.0625 390.572 70.0709 378.27 70.0709Z" fill="white"/>
    <path d="M378.27 103.201C384.274 103.201 389.142 98.3418 389.142 92.348C389.142 86.3541 384.274 81.4951 378.27 81.4951C372.265 81.4951 367.398 86.3541 367.398 92.348C367.398 98.3418 372.265 103.201 378.27 103.201Z" fill="#6BBE46"/>
    <path d="M48.6204 70.8333C53.5058 64.0413 57.7554 56.8489 61.093 49.2712C61.305 48.7952 60.9492 48.2588 60.427 48.2588H46.0888C45.6877 48.2588 45.3622 48.5837 45.3622 48.9841V56.7771C45.3622 61.0759 44.6432 65.2992 43.2771 69.2921C43.1296 69.7265 43.4096 70.1911 43.8675 70.2478C45.2222 70.414 46.5391 70.7011 47.8068 71.1015C48.1095 71.1959 48.4388 71.0939 48.6204 70.8371V70.8333Z" fill="#6BBE46"/>
    <path d="M84.2106 72.3492C76.6195 75.681 69.4107 79.9194 62.6105 84.8C62.3532 84.9851 62.251 85.3137 62.3456 85.6121C62.7505 86.8965 63.0419 88.2337 63.2084 89.6088C63.2652 90.0696 63.7306 90.3492 64.1696 90.1981C68.2224 88.7928 72.5175 88.0524 76.892 88.0524H84.502C84.9031 88.0524 85.2285 87.7276 85.2285 87.3271V73.0141C85.2285 72.4928 84.6912 72.1377 84.2144 72.3492H84.2106Z" fill="#6BBE46"/>
    <path d="M69.191 48.7129C63.3596 63.332 53.9597 77.6224 41.1578 91.3235C41.0443 91.4443 40.98 91.603 40.98 91.7692C40.98 92.1318 41.2751 92.4265 41.6384 92.4265C41.8049 92.4265 41.9639 92.3623 42.085 92.249C55.8102 79.4658 70.1257 70.0862 84.7705 64.265C85.0467 64.1555 85.2246 63.891 85.2246 63.5964V48.9811C85.2246 48.5807 84.8991 48.2559 84.498 48.2559H69.857C69.5619 48.2559 69.297 48.4372 69.1872 48.7092L69.191 48.7129Z" fill="#6BBE46"/>
    <path d="M36.128 48.7822C37.1136 48.6741 37.9755 49.4561 37.9756 50.4492V56.7764C37.9756 61.2195 37.0479 65.517 35.296 69.458L34.9346 70.2422C34.7464 70.6389 34.401 70.9424 33.9815 71.082C24.6507 74.1831 18.0184 83.2354 18.6465 93.7139C19.3166 104.949 28.3924 114.024 39.6465 114.716C50.1238 115.358 59.1892 108.783 62.3301 99.5068C62.4698 99.0956 62.7697 98.7566 63.1573 98.5684C67.3846 96.5111 72.0533 95.4209 76.8917 95.4209H83.0372C84.033 95.421 84.8185 96.2815 84.7071 97.2637V97.2646C82.2096 119.494 62.9962 136.753 39.9424 136.177C16.6662 135.597 -2.26845 116.7 -2.84955 93.4648C-3.42673 70.4521 13.8627 51.2716 36.128 48.7822Z" fill="white" stroke="white" strokeWidth="0.271367"/>
    </g>
    <defs>
    <filter id="filter0_f_806_232" x="-17.7081" y="-0.112384" width="454.841" height="151.26" filterUnits="userSpaceOnUse" color-interpolation-filters="sRGB">
    <feFlood flood-opacity="0" result="BackgroundImageFix"/>
    <feBlend mode="normal" in="SourceGraphic" in2="BackgroundImageFix" result="shape"/>
    <feGaussianBlur stdDeviation="7.35404" result="effect1_foregroundBlur_806_232"/>
    </filter>
    <clipPath id="clip0_806_232">
    <rect width="425.425" height="121.844" fill="white" transform="translate(-3 14.5957)"/>
    </clipPath>
    </defs>
    </svg>
    