<svg width="1920" height="1052" viewBox="0 0 1920 1052" fill="none" xmlns="http://www.w3.org/2000/svg">
<g clip-path="url(#clip0_843_7)">
<path d="M0 100C0 44.7715 44.7715 0 100 0H1820C1875.23 0 1920 44.7715 1920 100V1052H0V100Z" fill="#07302C"/>
<g opacity="0.1" clip-path="url(#clip1_843_7)" filter="url(#filter0_f_843_7)">
<path d="M611.888 1105.1H537.101C535.623 1105.1 534.424 1103.9 534.424 1102.43V923.147C534.424 846.321 596.813 784.055 673.761 784.055H685.21C686.688 784.055 687.887 785.252 687.887 786.727V861.382C687.887 862.858 686.688 864.055 685.21 864.055H673.761C641.06 864.055 614.551 890.518 614.551 923.161V1102.44C614.551 1103.92 613.352 1105.11 611.874 1105.11L611.888 1105.1Z" fill="white"/>
<path d="M888.394 784.514C857.897 783.595 829.198 791.126 804.474 804.935C802.982 805.771 801.183 804.727 801.183 803.028V663.087C801.183 661.611 799.984 660.414 798.506 660.414H723.719C722.241 660.414 721.042 661.611 721.042 663.087V1102.44C721.042 1103.92 722.241 1105.11 723.719 1105.11H798.506C799.984 1105.11 801.183 1103.92 801.183 1102.44V1090.8C801.183 1088.76 803.372 1087.5 805.171 1088.49C828.39 1101.3 855.066 1108.61 883.416 1108.61C974.476 1108.61 1048.27 1033.38 1045.72 941.912C1043.34 856.83 973.639 787.089 888.408 784.528L888.394 784.514ZM883.402 1028.61C838.053 1028.61 801.169 991.788 801.169 946.519C801.169 901.25 838.053 864.431 883.402 864.431C928.751 864.431 965.635 901.25 965.635 946.519C965.635 991.788 928.737 1028.61 883.402 1028.61Z" fill="white"/>
<path d="M1269.67 724.172H1194.9C1193.42 724.172 1192.22 725.368 1192.22 726.845V1102.43C1192.22 1103.91 1193.42 1105.1 1194.9 1105.1H1269.67C1271.15 1105.1 1272.35 1103.91 1272.35 1102.43V726.845C1272.35 725.368 1271.15 724.172 1269.67 724.172Z" fill="white"/>
<path d="M1382.95 660.414H1308.18C1306.7 660.414 1305.5 661.611 1305.5 663.087V1102.43C1305.5 1103.9 1306.7 1105.1 1308.18 1105.1H1382.95C1384.43 1105.1 1385.63 1103.9 1385.63 1102.43V663.087C1385.63 661.611 1384.43 660.414 1382.95 660.414Z" fill="white"/>
<path d="M1156.39 882.766H1081.61C1080.14 882.766 1078.94 883.962 1078.94 885.438V1102.44C1078.94 1103.92 1080.14 1105.12 1081.61 1105.12H1156.39C1157.87 1105.12 1159.06 1103.92 1159.06 1102.44V885.438C1159.06 883.962 1157.87 882.766 1156.39 882.766Z" fill="white"/>
<path d="M1156.39 787.938H1081.61C1080.14 787.938 1078.94 789.134 1078.94 790.61V843.146C1078.94 844.622 1080.14 845.818 1081.61 845.818H1156.39C1157.87 845.818 1159.06 844.622 1159.06 843.146V790.61C1159.06 789.134 1157.87 787.938 1156.39 787.938Z" fill="white"/>
<path d="M1581.14 1108.6C1491.62 1108.6 1418.78 1035.89 1418.78 946.52C1418.78 857.151 1491.62 784.445 1581.14 784.445C1670.67 784.445 1743.5 857.151 1743.5 946.52C1743.5 1035.89 1670.67 1108.6 1581.14 1108.6ZM1581.14 864.432C1535.79 864.432 1498.91 901.251 1498.91 946.52C1498.91 991.789 1535.79 1028.61 1581.14 1028.61C1626.49 1028.61 1663.37 991.789 1663.37 946.52C1663.37 901.251 1626.48 864.432 1581.14 864.432Z" fill="white"/>
<path d="M1581.14 1108.6C1491.62 1108.6 1418.78 1035.89 1418.78 946.52C1418.78 857.151 1491.62 784.445 1581.14 784.445C1670.67 784.445 1743.5 857.151 1743.5 946.52C1743.5 1035.89 1670.67 1108.6 1581.14 1108.6ZM1581.14 864.432C1535.79 864.432 1498.91 901.251 1498.91 946.52C1498.91 991.789 1535.79 1028.61 1581.14 1028.61C1626.49 1028.61 1663.37 991.789 1663.37 946.52C1663.37 901.251 1626.48 864.432 1581.14 864.432Z" fill="white"/>
<path d="M1581.14 986.514C1603.27 986.514 1621.21 968.608 1621.21 946.521C1621.21 924.433 1603.27 906.527 1581.14 906.527C1559.02 906.527 1541.08 924.433 1541.08 946.521C1541.08 968.608 1559.02 986.514 1581.14 986.514Z" fill="#6BBE46"/>
<path d="M366.368 867.243C384.371 842.214 400.031 815.71 412.331 787.785C413.111 786.031 411.801 784.055 409.876 784.055H357.039C355.561 784.055 354.362 785.252 354.362 786.727V815.445C354.362 831.287 351.712 846.849 346.678 861.563C346.134 863.164 347.166 864.876 348.854 865.085C353.846 865.698 358.699 866.756 363.37 868.231C364.486 868.579 365.699 868.203 366.368 867.257V867.243Z" fill="#6BBE46"/>
<path d="M497.52 872.827C469.546 885.104 442.981 900.723 417.922 918.708C416.974 919.39 416.598 920.601 416.946 921.701C418.438 926.434 419.512 931.362 420.126 936.429C420.335 938.127 422.05 939.157 423.668 938.6C438.603 933.422 454.43 930.694 470.55 930.694H498.594C500.072 930.694 501.271 929.496 501.271 928.021V875.277C501.271 873.356 499.291 872.047 497.534 872.827H497.52Z" fill="#6BBE46"/>
<path d="M442.172 785.727C420.683 839.599 386.044 892.26 338.868 942.749C338.45 943.195 338.213 943.779 338.213 944.392C338.213 945.728 339.301 946.814 340.639 946.814C341.253 946.814 341.839 946.577 342.285 946.16C392.863 899.053 445.616 864.489 499.583 843.037C500.601 842.634 501.256 841.659 501.256 840.574V786.716C501.256 785.24 500.057 784.043 498.579 784.043H444.626C443.539 784.043 442.562 784.711 442.158 785.713L442.172 785.727Z" fill="#6BBE46"/>
<path d="M320.333 785.985C323.965 785.587 327.141 788.469 327.142 792.129V815.446C327.142 832.911 323.254 849.765 315.938 865.065L315.937 865.066C315.243 866.528 313.969 867.647 312.423 868.161C278.038 879.589 253.597 912.948 255.912 951.562C258.382 992.963 291.828 1026.41 333.301 1028.95C371.91 1031.32 405.314 1007.09 416.889 972.906L416.888 972.905C417.37 971.485 418.374 970.302 419.674 969.588L419.938 969.451C435.516 961.87 452.719 957.85 470.549 957.85H493.195C496.866 957.85 499.762 961.023 499.351 964.644L499.35 964.645C490.147 1046.56 419.344 1110.16 334.39 1108.04C248.615 1105.9 178.841 1036.26 176.7 950.642C174.573 865.838 238.285 795.16 320.334 785.986L320.333 785.985Z" fill="white" stroke="white"/>
</g>
<g filter="url(#filter1_f_843_7)">
<path d="M0 701.82C127 828.82 169 1547.32 759 1335.82C1349 1124.32 1827.5 737.32 2030 1015.32" stroke="#C9FF90" stroke-width="150"/>
</g>
</g>
<defs>
<filter id="filter0_f_843_7" x="121.945" y="605.8" width="1676.11" height="557.4" filterUnits="userSpaceOnUse" color-interpolation-filters="sRGB">
<feFlood flood-opacity="0" result="BackgroundImageFix"/>
<feBlend mode="normal" in="SourceGraphic" in2="BackgroundImageFix" result="shape"/>
<feGaussianBlur stdDeviation="27.1" result="effect1_foregroundBlur_843_7"/>
</filter>
<filter id="filter1_f_843_7" x="-671.833" y="29.9871" width="3381.26" height="2038.33" filterUnits="userSpaceOnUse" color-interpolation-filters="sRGB">
<feFlood flood-opacity="0" result="BackgroundImageFix"/>
<feBlend mode="normal" in="SourceGraphic" in2="BackgroundImageFix" result="shape"/>
<feGaussianBlur stdDeviation="309.4" result="effect1_foregroundBlur_843_7"/>
</filter>
<clipPath id="clip0_843_7">
<path d="M0 100C0 44.7715 44.7715 0 100 0H1820C1875.23 0 1920 44.7715 1920 100V1052H0V100Z" fill="white"/>
</clipPath>
<clipPath id="clip1_843_7">
<rect width="1567.71" height="449" fill="white" transform="translate(176.145 660)"/>
</clipPath>
</defs>
</svg>
