<svg width="196" height="50" viewBox="0 0 196 50" fill="none" xmlns="http://www.w3.org/2000/svg">
    <path
        d="M99.4651 39.9172H93.5683C93.4519 39.9172 93.3583 39.8237 93.3583 39.7072V25.5446C93.3583 19.476 98.2777 14.5566 104.346 14.5566H105.249C105.366 14.5566 105.459 14.6502 105.459 14.7666V20.6634C105.459 20.7799 105.366 20.8734 105.249 20.8734H104.346C101.767 20.8734 99.677 22.9637 99.677 25.5427V39.7053C99.677 39.8217 99.5835 39.9153 99.467 39.9153L99.4651 39.9172Z"
        fill="white" />
    <path
        d="M122.636 14.5935C120.131 14.521 117.779 15.1739 115.777 16.3555V5.001C115.777 4.88455 115.683 4.79102 115.567 4.79102H109.67C109.553 4.79102 109.46 4.88455 109.46 5.001V39.7078C109.46 39.8243 109.553 39.9178 109.67 39.9178H115.567C115.683 39.9178 115.777 39.8243 115.777 39.7078V38.7877C115.777 38.6274 115.948 38.5262 116.088 38.6025C117.92 39.6143 120.024 40.1927 122.261 40.1927C129.491 40.1927 135.34 34.1699 135.055 26.8796C134.794 20.1849 129.334 14.7844 122.636 14.5916V14.5935ZM122.261 33.876C118.686 33.876 115.777 30.9667 115.777 27.3912C115.777 23.8157 118.686 20.9065 122.261 20.9065C125.837 20.9065 128.746 23.8157 128.746 27.3912C128.746 30.9667 125.837 33.876 122.261 33.876Z"
        fill="white" />
    <path
        d="M155.492 9.82617H149.593C149.478 9.82617 149.384 9.92019 149.384 10.0362V39.7072C149.384 39.8231 149.478 39.9171 149.593 39.9171H155.492C155.608 39.9171 155.702 39.8231 155.702 39.7072V10.0362C155.702 9.92019 155.608 9.82617 155.492 9.82617Z"
        fill="white" />
    <path
        d="M165.811 4.78906H159.912C159.796 4.78906 159.702 4.88308 159.702 4.99905V39.7078C159.702 39.8238 159.796 39.9178 159.912 39.9178H165.811C165.927 39.9178 166.021 39.8238 166.021 39.7078V4.99905C166.021 4.88308 165.927 4.78906 165.811 4.78906Z"
        fill="white" />
    <path
        d="M145.173 22.3535H139.274C139.158 22.3535 139.064 22.4475 139.064 22.5635V39.7079C139.064 39.8239 139.158 39.9179 139.274 39.9179H145.173C145.289 39.9179 145.383 39.8239 145.383 39.7079V22.5635C145.383 22.4475 145.289 22.3535 145.173 22.3535Z"
        fill="white" />
    <path
        d="M145.173 14.8633H139.274C139.158 14.8633 139.064 14.9573 139.064 15.0733V19.2253C139.064 19.3412 139.158 19.4352 139.274 19.4352H145.173C145.289 19.4352 145.383 19.3412 145.383 19.2253V15.0733C145.383 14.9573 145.289 14.8633 145.173 14.8633Z"
        fill="white" />
    <path
        d="M182.824 40.1947C175.765 40.1947 170.02 34.4506 170.02 27.3913C170.02 20.332 175.765 14.5879 182.824 14.5879C189.883 14.5879 195.627 20.332 195.627 27.3913C195.627 34.4506 189.883 40.1947 182.824 40.1947ZM182.824 20.9066C179.248 20.9066 176.339 23.8158 176.339 27.3913C176.339 30.9668 179.248 33.876 182.824 33.876C186.399 33.876 189.309 30.9668 189.309 27.3913C189.309 23.8158 186.399 20.9066 182.824 20.9066Z"
        fill="white" />
    <path
        d="M182.824 40.1947C175.765 40.1947 170.02 34.4506 170.02 27.3913C170.02 20.332 175.765 14.5879 182.824 14.5879C189.883 14.5879 195.627 20.332 195.627 27.3913C195.627 34.4506 189.883 40.1947 182.824 40.1947ZM182.824 20.9066C179.248 20.9066 176.339 23.8158 176.339 27.3913C176.339 30.9668 179.248 33.876 182.824 33.876C186.399 33.876 189.309 30.9668 189.309 27.3913C189.309 23.8158 186.399 20.9066 182.824 20.9066Z"
        fill="white" />
    <path
        d="M76.5552 40.1947C69.4959 40.1947 63.7518 34.4506 63.7518 27.3913C63.7518 20.332 69.4959 14.5879 76.5552 14.5879C83.6145 14.5879 89.3586 20.332 89.3586 27.3913C89.3586 34.4506 83.6145 40.1947 76.5552 40.1947ZM76.5552 20.9066C72.9797 20.9066 70.0705 23.8158 70.0705 27.3913C70.0705 30.9668 72.9797 33.876 76.5552 33.876C80.1307 33.876 83.04 30.9668 83.04 27.3913C83.04 23.8158 80.1307 20.9066 76.5552 20.9066Z"
        fill="white" />
    <path
        d="M76.5552 40.1947C69.4959 40.1947 63.7518 34.4506 63.7518 27.3913C63.7518 20.332 69.4959 14.5879 76.5552 14.5879C83.6145 14.5879 89.3586 20.332 89.3586 27.3913C89.3586 34.4506 83.6145 40.1947 76.5552 40.1947ZM76.5552 20.9066C72.9797 20.9066 70.0705 23.8158 70.0705 27.3913C70.0705 30.9668 72.9797 33.876 76.5552 33.876C80.1307 33.876 83.04 30.9668 83.04 27.3913C83.04 23.8158 80.1307 20.9066 76.5552 20.9066Z"
        fill="white" />
    <path
        d="M29.0009 12.706C31.746 8.88431 34.1341 4.8354 36.0068 0.57078C36.1252 0.301616 35.9266 0 35.6327 0H27.5768C27.3516 0 27.1702 0.181351 27.1702 0.406609V4.7934C27.1702 7.21206 26.7655 9.59062 25.9981 11.8375C25.9141 12.0837 26.0726 12.3433 26.3303 12.3758C27.092 12.4693 27.8307 12.6316 28.5428 12.8569C28.7127 12.9103 28.8959 12.853 29.0009 12.708V12.706Z"
        fill="#6BBE46" />
    <path
        d="M48.9952 13.5582C44.7306 15.4328 40.6816 17.819 36.8599 20.5641C36.7148 20.6672 36.6576 20.8523 36.711 21.0222C36.9382 21.7457 37.1023 22.4979 37.1959 23.271C37.2264 23.5306 37.4899 23.6891 37.7361 23.6032C40.0135 22.8109 42.4264 22.3948 44.8833 22.3948H49.1593C49.3846 22.3948 49.5659 22.2115 49.5659 21.9882V13.9324C49.5659 13.6384 49.2643 13.4398 48.9952 13.5582Z"
        fill="#6BBE46" />
    <path
        d="M40.5561 0.255801C37.2784 8.48343 32.0001 16.5259 24.8052 24.2362C24.7422 24.3049 24.706 24.3946 24.706 24.4882C24.706 24.6924 24.872 24.8585 25.0763 24.8585C25.1698 24.8585 25.2596 24.8222 25.3283 24.7592C33.0405 17.5644 41.081 12.2861 49.3087 9.00839C49.4633 8.9473 49.5645 8.7984 49.5645 8.63233V0.406609C49.5645 0.181351 49.3812 0 49.1579 0H40.9321C40.7661 0 40.6172 0.101175 40.5561 0.255801Z"
        fill="#6BBE46" />
    <path
        d="M44.8837 26.4673C42.1538 26.4673 39.5195 27.0839 37.1352 28.2484C36.8985 28.3629 36.7171 28.571 36.6331 28.8192C34.8788 34.0077 29.8162 37.6863 23.9672 37.3274C17.6829 36.9418 12.6146 31.864 12.2404 25.5797C11.8911 19.7191 15.5926 14.6547 20.804 12.9194C21.0579 12.8354 21.2698 12.6483 21.3843 12.4059C22.5049 10.0579 23.0986 7.47316 23.0986 4.79488V1.23085C23.0986 0.627618 22.5755 0.150378 21.9761 0.217192C9.4247 1.62601 -0.316738 12.4517 0.00778602 25.4441C0.336127 38.5606 11.0053 49.2298 24.1218 49.5581C37.1142 49.8826 47.9399 40.1393 49.3487 27.5898C49.4155 26.9904 48.9383 26.4673 48.3351 26.4673H44.8837Z"
        fill="white" />
</svg>