<svg width="1920" height="2870" viewBox="0 0 1920 2870" fill="none"
    xmlns="http://www.w3.org/2000/svg">
    <g clip-path="url(#clip0_848_4)">
        <rect width="1920" height="2870" fill="#041E1D" />
        <g filter="url(#filter0_f_848_4)">
            <ellipse cx="409" cy="-22.5" rx="598" ry="474.5" fill="#C9FF90" fill-opacity="0.21" />
        </g>
        <g filter="url(#filter1_f_848_4)">
            <path
                d="M2427 440.5C2427 702.559 2159.27 915 1829 915C1498.73 915 1231 702.559 1231 440.5C1231 178.441 1498.73 -120 1829 -120C2159.27 -120 2427 178.441 2427 440.5Z"
                fill="#C9FF90" fill-opacity="0.19" />
        </g>
        <g filter="url(#filter2_f_848_4)">
            <path
                d="M731 1258.51C731 1490.19 494.382 1678 202.5 1678C-89.3825 1678 -326 1490.19 -326 1258.51C-326 1026.84 -89.3825 763 202.5 763C494.382 763 731 1026.84 731 1258.51Z"
                fill="#C9FF90" fill-opacity="0.21" />
        </g>
        <g filter="url(#filter3_f_848_4)">
            <path
                d="M2694 2076.5C2694 2338.56 2426.27 2551 2096 2551C1765.73 2551 1498 2338.56 1498 2076.5C1498 1814.44 1765.73 1516 2096 1516C2426.27 1516 2694 1814.44 2694 2076.5Z"
                fill="#C9FF90" fill-opacity="0.19" />
        </g>
        <g filter="url(#filter4_f_848_4)">
            <path
                d="M574.5 2693.51C574.5 2925.19 337.882 3113 46 3113C-245.882 3113 -482.5 2925.19 -482.5 2693.51C-482.5 2461.84 -245.882 2198 46 2198C337.882 2198 574.5 2461.84 574.5 2693.51Z"
                fill="#C9FF90" fill-opacity="0.21" />
        </g>
    </g>
    <defs>
        <filter id="filter0_f_848_4" x="-529" y="-837" width="1876" height="1629"
            filterUnits="userSpaceOnUse" color-interpolation-filters="sRGB">
            <feFlood flood-opacity="0" result="BackgroundImageFix" />
            <feBlend mode="normal" in="SourceGraphic" in2="BackgroundImageFix" result="shape" />
            <feGaussianBlur stdDeviation="170" result="effect1_foregroundBlur_848_4" />
        </filter>
        <filter id="filter1_f_848_4" x="891" y="-460" width="1876" height="1715"
            filterUnits="userSpaceOnUse" color-interpolation-filters="sRGB">
            <feFlood flood-opacity="0" result="BackgroundImageFix" />
            <feBlend mode="normal" in="SourceGraphic" in2="BackgroundImageFix" result="shape" />
            <feGaussianBlur stdDeviation="170" result="effect1_foregroundBlur_848_4" />
        </filter>
        <filter id="filter2_f_848_4" x="-778.46" y="310.54" width="1961.92" height="1819.92"
            filterUnits="userSpaceOnUse" color-interpolation-filters="sRGB">
            <feFlood flood-opacity="0" result="BackgroundImageFix" />
            <feBlend mode="normal" in="SourceGraphic" in2="BackgroundImageFix" result="shape" />
            <feGaussianBlur stdDeviation="226.23" result="effect1_foregroundBlur_848_4" />
        </filter>
        <filter id="filter3_f_848_4" x="1158" y="1176" width="1876" height="1715"
            filterUnits="userSpaceOnUse" color-interpolation-filters="sRGB">
            <feFlood flood-opacity="0" result="BackgroundImageFix" />
            <feBlend mode="normal" in="SourceGraphic" in2="BackgroundImageFix" result="shape" />
            <feGaussianBlur stdDeviation="170" result="effect1_foregroundBlur_848_4" />
        </filter>
        <filter id="filter4_f_848_4" x="-934.96" y="1745.54" width="1961.92" height="1819.92"
            filterUnits="userSpaceOnUse" color-interpolation-filters="sRGB">
            <feFlood flood-opacity="0" result="BackgroundImageFix" />
            <feBlend mode="normal" in="SourceGraphic" in2="BackgroundImageFix" result="shape" />
            <feGaussianBlur stdDeviation="226.23" result="effect1_foregroundBlur_848_4" />
        </filter>
        <clipPath id="clip0_848_4">
            <rect width="1920" height="2870" fill="white" />
        </clipPath>
    </defs>
</svg>
    