<svg width="49" height="49" viewBox="0 0 49 49" fill="none" xmlns="http://www.w3.org/2000/svg">
<path d="M28.2165 12.3622C30.8873 8.64389 33.2108 4.70455 35.0328 0.555334C35.148 0.293454 34.9548 0 34.6688 0H26.831C26.6118 0 26.4354 0.176444 26.4354 0.395606V4.66369C26.4354 7.0169 26.0416 9.3311 25.295 11.5171C25.2132 11.7567 25.3674 12.0093 25.6181 12.0409C26.3592 12.1319 27.078 12.2898 27.7708 12.5089C27.9361 12.5609 28.1144 12.5052 28.2165 12.3641V12.3622Z" fill="#6BBE46"/>
<path d="M47.6699 13.191C43.5207 15.0149 39.5813 17.3365 35.863 20.0074C35.7218 20.1076 35.6661 20.2878 35.7181 20.4531C35.9391 21.157 36.0989 21.8888 36.1899 22.641C36.2196 22.8936 36.4759 23.0478 36.7155 22.9642C38.9313 22.1934 41.2789 21.7885 43.6692 21.7885H47.8296C48.0488 21.7885 48.2252 21.6102 48.2252 21.3929V13.5551C48.2252 13.2691 47.9318 13.0759 47.6699 13.191Z" fill="#6BBE46"/>
<path d="M39.4588 0.248879C36.2698 8.25386 31.1344 16.0787 24.1342 23.5803C24.0729 23.6472 24.0376 23.7345 24.0376 23.8255C24.0376 24.0242 24.1992 24.1858 24.3979 24.1858C24.4889 24.1858 24.5762 24.1505 24.6431 24.0892C32.1466 17.0891 39.9696 11.9536 47.9745 8.76462C48.125 8.70518 48.2234 8.56032 48.2234 8.39873V0.395606C48.2234 0.176444 48.0451 0 47.8278 0H39.8247C39.6631 0 39.5182 0.0984371 39.4588 0.248879Z" fill="#6BBE46"/>
<path d="M43.6692 25.751C41.0132 25.751 38.4501 26.3509 36.1304 27.4838C35.9001 27.5953 35.7236 27.7977 35.6419 28.0392C33.935 33.0873 29.0095 36.6663 23.3187 36.3172C17.2044 35.942 12.2733 31.0016 11.9093 24.8873C11.5694 19.1854 15.1707 14.258 20.2411 12.5697C20.4882 12.4879 20.6943 12.3059 20.8058 12.0701C21.896 9.78557 22.4736 7.27078 22.4736 4.66498V1.19739C22.4736 0.610484 21.9647 0.146158 21.3815 0.211163C9.16975 1.58185 -0.308077 12.1146 0.0076644 24.7554C0.327121 37.517 10.7076 47.8974 23.4691 48.2169C36.1099 48.5326 46.6427 39.053 48.0134 26.8431C48.0784 26.2599 47.6141 25.751 47.0272 25.751H43.6692Z" fill="#07302C"/>
</svg>
