<svg width="50" height="50" viewBox="0 0 50 50" fill="none" xmlns="http://www.w3.org/2000/svg">
    <path
        d="M29.0009 12.706C31.746 8.88431 34.1341 4.8354 36.0068 0.57078C36.1252 0.301616 35.9266 0 35.6327 0H27.5768C27.3516 0 27.1702 0.181351 27.1702 0.406609V4.7934C27.1702 7.21206 26.7655 9.59062 25.9981 11.8375C25.9141 12.0837 26.0726 12.3433 26.3303 12.3758C27.092 12.4693 27.8307 12.6316 28.5428 12.8569C28.7127 12.9103 28.8959 12.853 29.0009 12.708V12.706Z"
        fill="#6BBE46" />
    <path
        d="M48.9952 13.5582C44.7306 15.4328 40.6816 17.819 36.8599 20.5641C36.7148 20.6672 36.6576 20.8523 36.711 21.0222C36.9382 21.7457 37.1023 22.4979 37.1959 23.271C37.2264 23.5306 37.4899 23.6891 37.7361 23.6032C40.0135 22.8109 42.4264 22.3948 44.8833 22.3948H49.1593C49.3846 22.3948 49.5659 22.2115 49.5659 21.9882V13.9324C49.5659 13.6384 49.2643 13.4398 48.9952 13.5582Z"
        fill="#6BBE46" />
    <path
        d="M40.5561 0.255801C37.2784 8.48343 32.0001 16.5259 24.8052 24.2362C24.7422 24.3049 24.706 24.3946 24.706 24.4882C24.706 24.6924 24.872 24.8585 25.0763 24.8585C25.1698 24.8585 25.2596 24.8222 25.3283 24.7592C33.0405 17.5644 41.081 12.2861 49.3087 9.00839C49.4633 8.9473 49.5645 8.7984 49.5645 8.63233V0.406609C49.5645 0.181351 49.3812 0 49.1579 0H40.9321C40.7661 0 40.6172 0.101175 40.5561 0.255801Z"
        fill="#6BBE46" />
    <path
        d="M44.8837 26.4673C42.1538 26.4673 39.5195 27.0839 37.1352 28.2484C36.8985 28.3629 36.7171 28.571 36.6331 28.8192C34.8788 34.0077 29.8162 37.6863 23.9672 37.3274C17.6829 36.9418 12.6146 31.864 12.2404 25.5797C11.8911 19.7191 15.5926 14.6547 20.804 12.9194C21.0579 12.8354 21.2698 12.6483 21.3843 12.4059C22.5049 10.0579 23.0986 7.47316 23.0986 4.79488V1.23085C23.0986 0.627618 22.5755 0.150378 21.9761 0.217192C9.4247 1.62601 -0.316738 12.4517 0.00778602 25.4441C0.336127 38.5606 11.0053 49.2298 24.1218 49.5581C37.1142 49.8826 47.9399 40.1393 49.3487 27.5898C49.4155 26.9904 48.9383 26.4673 48.3351 26.4673H44.8837Z"
        fill="white" />
</svg>
    