<svg width="313" height="293" viewBox="0 0 313 293" fill="none" xmlns="http://www.w3.org/2000/svg">
    <g clip-path="url(#clip0_700_3714)">
        <path
            d="M305.842 192.348C304.114 184.457 302.342 176.504 299.249 168.989C295.399 159.585 289.004 149.125 280.378 142.785L276.204 155.164C244.518 248.455 246.673 244.384 243.891 248.908C236.916 260.399 222.482 266.041 209.047 261.695L209.013 261.699C205.098 260.426 201.647 258.406 198.756 255.873L177.757 258.548C177.17 259.987 176.811 261.502 176.814 263.075C176.857 269.901 183.208 275.42 189.993 277.046C196.808 278.635 203.934 277.256 210.78 275.845L208.75 278.83C202.491 283.228 196.16 287.602 190.642 292.95C174.368 308.755 168.26 332.992 179.938 353.01C199.568 386.521 257.606 386.026 277.134 352.507C282.188 343.84 294.064 326.074 303.274 294.384C310.246 270.383 312.754 246.067 312.048 230.8C311.497 217.812 308.665 205.047 305.842 192.348Z"
            fill="#FAAAD5" />
        <path
            d="M248.819 213.851L243.816 198.636C245.222 198.591 246.646 198.679 248.12 198.895C248.679 198.959 249.115 199.407 249.267 200.061C250.734 205.9 250.571 210.296 248.819 213.851Z"
            fill="#FCA8D7" />
        <path
            d="M276.205 155.163C273.74 162.486 255.202 217.54 252.418 225.809C252.007 222.579 251.349 221.407 249.556 216.043C252.776 211.261 252.316 205.182 250.945 199.644C250.611 198.374 249.624 197.388 248.399 197.242C246.646 196.994 244.947 196.908 243.27 196.987C225.973 144.581 231.939 162.656 230.648 158.746C230.764 158.834 269.19 167.87 269.484 167.833C270.449 167.71 270.452 166.377 269.583 166.171L231.281 157.218C230.892 157.133 230.472 157.355 230.311 157.712L223.746 137.815L276.205 155.163Z"
            fill="#FBD072" />
        <path
            d="M204.757 276.844C206.614 277.551 213.634 274.647 215.948 273.457C216.942 272.936 217.744 274.42 216.735 274.935C213.785 276.453 210.645 277.611 207.406 278.374C202.262 279.584 203.345 276.298 204.757 276.844Z"
            fill="#062B28" />
        <path
            d="M271.476 154.502C224.4 139.402 223.825 139.339 223.443 139.065C222.56 138.429 223.441 137.143 224.335 137.633L272.015 152.914C273.103 153.261 272.532 154.848 271.476 154.502Z"
            fill="#C9FF90" />
        <path
            d="M252.174 226.533C250.599 226.03 249.004 234.543 302.886 73.3186C303.628 71.1734 302.441 68.9266 300.3 68.239L253.666 53.1095C251.517 52.4078 249.187 53.5429 248.462 55.667L222.649 132.289C222.3 133.339 220.669 132.829 221.028 131.776L246.841 55.1498C247.876 52.1231 251.189 50.5309 254.215 51.525L300.845 66.6519C303.905 67.6349 305.544 70.857 304.504 73.8406C249.789 235.086 253.757 227.013 252.174 226.533Z"
            fill="#C9FF90" />
        <path
            d="M204.281 183.724C212.671 180.861 219.915 178.385 235.403 173.103C236.428 172.678 237.096 174.243 236.025 174.656C235.632 174.82 235.354 174.935 235.029 174.976L204.839 185.301C203.769 185.68 203.212 184.089 204.281 183.724Z"
            fill="#C9FF90" />
        <path
            d="M200.339 66.8216C200.511 63.0304 197.715 61.636 195.097 62.4408L148.193 77.3358C145.579 78.1739 144.137 80.9156 144.979 83.4665L163.102 139.214L218.353 122.247L200.339 66.8216ZM193.007 107.134L188.53 89.8328C188.306 88.7592 189.892 88.3159 190.199 89.4181L194.676 106.719C194.985 107.779 193.323 108.216 193.007 107.134ZM207.63 116.478C206.478 117.932 205.974 113.11 194.327 76.944C194.037 75.9006 195.587 75.3692 195.984 76.4299L208.19 115.464C208.347 115.882 208.096 116.352 207.63 116.478Z"
            fill="#C9FF90" />
        <path
            d="M199.525 67.0854C199.496 66.9903 199.484 66.8917 199.488 66.7923C199.622 63.8005 197.612 62.539 195.35 63.2395L148.451 78.1316C146.282 78.8264 145.095 81.0946 145.789 83.2067L172.05 162.791C172.395 163.845 170.77 164.356 170.42 163.314L144.166 83.7293C143.174 80.743 144.863 77.5266 147.929 76.5435L194.837 61.6487C198.115 60.634 201.304 62.5662 201.198 66.7011C241.095 188.911 240.468 183.086 238.865 183.602C237.348 184.085 240.455 190.143 199.525 67.0854Z"
            fill="#C9FF90" />
        <path
            d="M142.27 144.355L107.972 191.703L164.857 228.378L199.154 181.029L142.27 144.355ZM128.179 190.005L146.485 162.565C147.092 161.619 148.565 162.536 147.907 163.461L129.602 190.901C128.971 191.866 127.553 190.884 128.179 190.005ZM150.411 180.138L143.76 188.76C143.099 189.594 141.747 188.666 142.392 187.756L149.043 179.134C149.754 178.237 151.122 179.24 150.411 180.138Z"
            fill="#FBD072" />
        <path
            d="M170.388 218.983C195.526 184.278 193.94 185.877 194.649 185.787C194.613 185.771 194.733 185.551 194.807 185.42L195.632 185.685L196.305 186.215C196.116 186.555 195.822 187.081 195.285 187.325L171.781 219.94C171.158 220.818 169.722 219.909 170.388 218.983Z"
            fill="#559B36" />
        <path
            d="M212.037 257.855C203.493 255.811 212.376 259.376 68.5878 167.342C65.9191 165.602 65.1962 162.066 66.9777 159.458L94.3761 119.316C96.188 116.662 99.7841 115.962 102.446 117.699C232.85 202.257 227.739 197.515 226.807 198.892C225.897 200.257 232.856 203.328 101.497 119.092C99.5855 117.848 97.0655 118.378 95.7928 120.238L68.3942 160.379C67.1415 162.221 67.651 164.718 69.538 165.947C210.48 256.196 204.419 254.312 212.451 256.23C213.534 256.489 213.151 258.117 212.037 257.855Z"
            fill="#C9FF90" />
        <path
            d="M246.25 219.861C240.828 224.367 234.723 220.84 232.795 214.541C232.109 212.407 231.678 209.836 231.511 207.165C222.213 203.497 226.576 205.925 62.6897 202.355C59.9616 202.298 57.6855 204.44 57.6119 207.107L56.3386 255.23C56.2651 257.898 58.4076 260.116 61.169 260.168L176.867 262.154C223.233 262.966 220.867 263.044 223.298 262.734C244.642 260.606 256.411 237.517 246.25 219.861ZM214.02 249.377C201.285 243.466 204.345 224.729 218.468 222.929C219.01 222.86 219.591 222.82 220.142 222.817C227.292 222.714 233.495 227.881 234.398 234.968C235.789 245.884 224.298 254.087 214.02 249.377ZM245.378 218.423C242.462 213.915 238.278 210.275 233.332 207.943C234.128 220.063 240.761 222.395 245.378 218.423Z"
            fill="#559B36" />
        <path
            d="M82.1484 261.779C81.0431 261.762 81.0166 260.131 82.1845 260.107C232.766 262.616 225.565 261.31 225.522 262.956C225.493 264.672 232.502 263.454 82.1484 261.779Z"
            fill="#062B28" />
        <path
            d="M248.825 213.849C248.749 214.061 248.668 214.239 248.553 214.422C243.61 223.112 236.637 221.202 234.418 214.035C233.396 210.644 233.02 206.261 233.123 202.791C233.153 201.945 233.67 201.139 234.352 200.816C238.861 198.82 243.353 198.194 248.124 198.894C248.683 198.957 249.119 199.406 249.272 200.06C250.739 205.898 250.576 210.294 248.825 213.849Z"
            fill="#FAAAD5" />
        <path
            d="M251.95 186.997C246.953 181.262 238.626 180.531 233.112 186.2C226.022 193.461 224.618 203.24 220.144 222.821C218.968 227.918 217.791 233.015 216.611 238.08C214.865 245.739 210.542 264.451 203.166 296.638L263.125 293.644C261.947 276.038 259.275 227.737 257.05 210.277C256.329 203.536 256.704 192.415 251.95 186.997ZM231.431 202.737C231.482 201.25 232.377 199.89 233.682 199.32C238.2 197.286 242.9 196.466 248.399 197.243C249.623 197.39 250.61 198.375 250.944 199.645C252.316 205.184 252.775 211.263 249.555 216.044C243.148 226.407 230.702 223.643 231.431 202.737Z"
            fill="#FAAAD5" />
        <path
            d="M202.34 296.452C206.796 276.932 211.288 257.419 215.785 237.908C224.296 201.013 225.082 193.212 232.49 185.609C238.344 179.614 247.286 180.346 252.598 186.436C257.547 192.111 257.154 203.377 257.883 210.171C260.834 237.756 261.032 248.493 262.872 276.215C262.941 277.336 261.238 277.424 261.164 276.334C260.683 269.054 260.313 262.952 259.978 257.415C257.948 223.87 256.293 212.901 255.828 205.82C255.414 199.51 254.898 191.656 251.296 187.525C246.636 182.184 238.867 181.488 233.723 186.756C226.837 193.824 226.094 200.798 217.453 238.266C212.955 257.774 208.464 277.288 204.008 296.807C203.766 297.887 202.09 297.538 202.34 296.452Z"
            fill="#062B28" />
        <path
            d="M290.231 113.119C290.05 113.069 289.869 112.995 289.687 112.919C289.286 112.752 289.069 112.798 288.877 112.744L240.835 98.7925C239.753 98.4765 240.25 96.8746 241.331 97.1899L289.226 111.1C289.881 111.091 290.339 111.407 290.706 111.512C291.787 111.81 291.32 113.431 290.231 113.119Z"
            fill="#C9FF90" />
        <path
            d="M109.314 187.308L136.536 150.914L137.83 149.685C138.653 148.915 139.829 150.111 139.02 150.882L137.819 152.002L110.691 188.292C110.034 189.171 108.635 188.22 109.314 187.308Z"
            fill="#C9FF90" />
        <path
            d="M163.392 140.422C162.925 140.482 162.496 140.16 162.438 139.702C162.38 139.244 162.714 138.825 163.18 138.765L163.445 138.731L213.309 123.287C214.393 122.965 214.892 124.547 213.815 124.881L163.392 140.422Z"
            fill="#07302C" />
        <path
            d="M82.2911 164.179L106.612 130.84C107.26 129.941 108.664 130.898 108 131.804L83.6792 165.144C83.051 166.02 81.6182 165.098 82.2911 164.179Z"
            fill="#C9FF90" />
        <path
            d="M98.4258 162.418L104.12 154.569C104.793 153.667 106.163 154.631 105.515 155.529L99.8203 163.379C99.1645 164.275 97.769 163.33 98.4258 162.418Z"
            fill="#C9FF90" />
        <path
            d="M190.892 248.891L110.293 247.738C109.189 247.721 109.16 246.088 110.329 246.066L190.929 247.218C192.028 247.235 192.059 248.874 190.892 248.891Z"
            fill="#C9FF90" />
        <path
            d="M160.233 233.038C156.25 233.182 142.639 233.672 143.378 233.645C142.257 233.686 142.179 232.015 143.326 231.974L160.102 231.375C161.182 231.338 161.305 232.902 160.233 233.038Z"
            fill="#C9FF90" />
        <path
            d="M295.429 76.6641L257.063 66.5937C255.966 66.303 256.435 64.6857 257.517 64.9798L295.883 75.0503C296.983 75.3414 296.509 76.9562 295.429 76.6641Z"
            fill="#C9FF90" />
        <path
            d="M271.852 81.3522L263.644 78.8509C262.567 78.5214 263.079 76.9281 264.162 77.2553L272.369 79.7566C273.447 80.0867 272.931 81.6783 271.852 81.3522Z"
            fill="#C9FF90" />
        <path
            d="M268.35 277.714C264.726 277.297 260.984 277.725 257.544 278.965C256.513 279.366 255.877 277.789 256.961 277.398C260.652 276.069 264.658 275.602 268.563 276.055C269.691 276.185 269.464 277.852 268.35 277.714Z"
            fill="#062B28" />
        <path
            d="M103.688 307.263C94.0079 308.496 86.1035 305.25 81.7261 300.289C80.9841 299.449 82.2952 298.362 83.0206 299.193C87.0794 303.79 93.9378 306.263 101.365 305.805C115.355 304.93 126.987 295.243 139.694 289.909C140.76 289.487 141.387 291.011 140.361 291.445C128.15 296.568 117.321 305.526 103.688 307.263Z"
            fill="#C9FF90" />
        <path
            d="M307.653 276.239C318.286 227.363 303.289 187.83 301.774 179.664C301.634 178.568 303.33 178.352 303.47 179.448C305.075 188.108 320.011 227.443 309.325 276.579C309.085 277.664 307.42 277.322 307.653 276.239Z"
            fill="#062B28" />
        <path
            d="M45.8239 155.13C38.0631 150.037 37.3844 137.814 46.7608 131.076C44.6748 123.87 48.8004 116.319 54.8377 111.947C52.8615 106.711 54.0468 100.114 58.1319 95.5624C62.5942 90.5935 70.0642 88.0383 77.6321 88.8743C78.7411 88.9984 78.5663 90.6476 77.4264 90.535C62.7393 88.8984 52.5784 100.256 56.3121 111.022C60.9275 108.61 65.2278 111.331 64.6197 114.993C64.0157 118.656 58.7623 119.523 55.5458 113.514C50.4207 117.484 46.731 123.775 48.2657 130.105C56.0513 125.626 60.9301 130.386 59.6061 134.818C58.148 139.697 50.7242 140.331 47.3571 132.723C39.4885 138.755 39.9861 149.278 46.7848 153.741C47.7178 154.354 46.7667 155.742 45.8239 155.13ZM48.7949 131.74C49.8654 134.396 52.3305 137.093 55.0341 136.782C55.047 136.78 55.0607 136.779 55.0736 136.777C58.0888 136.393 59.1652 132.628 56.8249 130.79C54.6719 129.095 51.1711 130.294 48.7949 131.74ZM56.9745 112.57C57.2701 113.146 57.6162 113.695 58.0116 114.212C59.0902 115.624 60.8963 116.727 62.1686 115.96C63.1516 115.368 63.2088 113.734 62.4345 112.846C61.4946 111.765 59.3716 111.257 56.9745 112.57Z"
            fill="#DBF964" />
    </g>
    <defs>
        <clipPath id="clip0_700_3714">
            <rect width="302.031" height="365.316" fill="white"
                transform="translate(0 65.2735) rotate(-12.481)" />
        </clipPath>
    </defs>
</svg>
    