<svg width="160" height="39" viewBox="0 0 160 39" fill="none" xmlns="http://www.w3.org/2000/svg">
    <path
        d="M32.0481 35.8372C31.2843 35.5176 28.6406 34.3293 27.7409 31.8614C26.4143 28.221 29.3775 24.7332 29.538 24.5496C29.8146 24.2261 32.7571 20.6668 31.5506 15.9581C31.2994 14.9765 30.8805 14.0401 30.3265 13.192C29.7463 12.305 28.9975 11.4402 28.1224 10.8321C27.2902 10.2543 26.3269 9.88866 25.3516 9.63431C24.2571 9.34896 23.1244 9.18841 21.9997 9.07872C19.7598 8.83947 17.5208 8.60022 15.2809 8.36097C11.7248 7.98104 10.8933 7.71476 10.1804 7.50969C7.78709 6.81977 3.92415 5.08939 0 0C0.213813 1.41562 0.81869 3.78425 2.31459 6.42393C3.21912 7.88724 4.3486 9.09938 5.62353 10.1526C6.53998 10.9092 7.56692 11.4521 8.67176 11.9179C9.2973 12.1818 9.94271 12.3964 10.6064 12.5395C11.8694 12.8129 13.1674 12.9361 14.4431 13.1181C16.4827 13.409 18.6089 13.5076 20.4728 14.4781C21.9075 15.2253 23.2754 16.4151 23.5544 18.0875C23.8938 20.1215 22.5331 21.9767 21.2804 22.9162C19.2599 24.4303 16.2927 24.4399 13.8255 22.9162C14.0926 24.5687 14.7396 27.1726 16.4763 29.8742C19.306 34.2753 23.2762 36.2084 24.9398 36.9046C26.1631 37.4165 28.2671 38.3362 31.0546 38.488C37.2091 38.8234 41.7993 35.2442 43.269 33.9907C42.6291 34.4327 37.2607 38.019 32.0489 35.8372H32.0481Z"
        fill="url(#paint0_linear_40_10199)" />
    <path
        d="M9.86994 22.0586C7.52117 21.8504 3.50641 20.2662 3.50641 20.2662C8.21189 37.5366 24.3011 37.9237 24.3011 37.9237C10.8563 33.6212 9.86994 22.0586 9.86994 22.0586Z"
        fill="url(#paint1_linear_40_10199)" />
    <path
        d="M48.1169 27.755H44.2896V10.6598H53.7302C55.142 10.6598 56.3413 10.864 57.3278 11.2722C58.3144 11.6634 59.0629 12.2418 59.5732 13.0072C60.0835 13.7727 60.3386 14.6997 60.3386 15.7884C60.3386 16.7239 60.16 17.5234 59.8028 18.1868C59.4456 18.8502 58.9098 19.386 58.1954 19.7943C57.4809 20.1855 56.5879 20.4321 55.5163 20.5342V20.7383C56.2817 20.9425 56.8516 21.2486 57.2258 21.6569C57.6 22.0651 57.9487 22.5669 58.2719 23.1623L60.7469 27.755H56.3072L53.9598 23.3154C53.7217 22.8731 53.4751 22.5244 53.2199 22.2692C52.9648 22.0141 52.6331 21.8355 52.2248 21.7334C51.8336 21.6144 51.3063 21.5548 50.6429 21.5548H48.1169V27.755ZM48.1169 14.1044V18.6716H53.7047C54.6062 18.6716 55.2696 18.5185 55.6949 18.2123C56.1201 17.8891 56.3328 17.2768 56.3328 16.3752C56.3328 15.5247 56.1201 14.9379 55.6949 14.6147C55.2696 14.2745 54.6062 14.1044 53.7047 14.1044H48.1169ZM75.1217 27.755H71.5496V24.7187L71.3454 24.6677V20.2025C71.3454 19.369 71.1328 18.8077 70.7076 18.5185C70.2993 18.2293 69.5849 18.0848 68.5643 18.0848C67.5947 18.0848 66.8973 18.2293 66.472 18.5185C66.0468 18.8077 65.8342 19.318 65.8342 20.0494V20.1515H61.9814V20.0749C61.9814 19.0203 62.262 18.0933 62.8234 17.2938C63.3847 16.4773 64.1757 15.8479 65.1963 15.4057C66.2339 14.9464 67.4501 14.7167 68.845 14.7167C70.2738 14.7167 71.4475 14.9464 72.3661 15.4057C73.3016 15.8649 73.9905 16.5113 74.4328 17.3448C74.8921 18.1613 75.1217 19.1309 75.1217 20.2535V27.755ZM66.1403 28.0102C64.7625 28.0102 63.6824 27.704 62.8999 27.0916C62.1175 26.4792 61.7262 25.6458 61.7262 24.5911C61.7262 23.9447 61.8793 23.3919 62.1855 22.9326C62.4917 22.4734 62.951 22.1076 63.5633 21.8355C64.1757 21.5463 64.9411 21.3507 65.8597 21.2486L71.6006 20.6618V22.8561L66.9058 23.3919C66.4465 23.4259 66.1063 23.5195 65.8852 23.6726C65.6811 23.8087 65.579 24.0298 65.579 24.336C65.579 24.6762 65.7151 24.9228 65.9873 25.0759C66.2594 25.229 66.6762 25.3055 67.2375 25.3055C68.156 25.3055 68.913 25.2205 69.5084 25.0504C70.1037 24.8803 70.5545 24.6081 70.8607 24.2339C71.1839 23.8427 71.3454 23.3239 71.3454 22.6775L71.7027 22.652V24.8208H71.3454C71.0563 25.8073 70.4694 26.5898 69.5849 27.1682C68.7174 27.7295 67.5692 28.0102 66.1403 28.0102ZM91.4522 27.755H87.6249V21.07C87.6249 20.0324 87.3868 19.2925 86.9105 18.8502C86.4342 18.3909 85.6092 18.1613 84.4355 18.1613C83.2108 18.1613 82.3518 18.4164 81.8585 18.9268C81.3822 19.42 81.1441 20.211 81.1441 21.2997H80.6593L80.3786 18.9012H81.093C81.2121 18.1868 81.4673 17.5149 81.8585 16.8855C82.2497 16.2392 82.8026 15.7203 83.517 15.3291C84.2484 14.9209 85.1755 14.7167 86.2981 14.7167C87.4548 14.7167 88.4159 14.9464 89.1814 15.4057C89.9468 15.8479 90.5166 16.4518 90.8909 17.2172C91.2651 17.9827 91.4522 18.8417 91.4522 19.7943V27.755ZM81.1441 27.755H77.3168V14.9719H80.8634V18.9523L81.1441 19.0798V27.755ZM108.111 27.755H103.594L100.405 23.1368H95.7103V19.7177H100.38L103.645 14.9719H108.187L103.518 21.1466L108.111 27.755ZM97.4708 27.755H93.6435V10.6598H97.4708V27.755ZM113.2 27.755H109.372V10.6598H114.552L118.558 19.0798L120.165 23.0857H120.446L122.002 19.0798L125.881 10.6598H131.086V27.755H127.258V19.0798L127.386 16.4007H127.105L126.11 19.0798L122.538 26.7344H117.894L114.322 19.0798L113.327 16.4007H113.046L113.2 19.0798V27.755ZM140.136 28.0102C138.724 28.0102 137.473 27.772 136.385 27.2957C135.296 26.8194 134.454 26.088 133.859 25.1014C133.263 24.1148 132.966 22.8731 132.966 21.3762C132.966 20.0154 133.263 18.8417 133.859 17.8551C134.454 16.8515 135.279 16.0776 136.334 15.5332C137.405 14.9889 138.647 14.7167 140.059 14.7167C141.454 14.7167 142.67 14.9549 143.708 15.4312C144.762 15.9075 145.579 16.6134 146.157 17.5489C146.735 18.4675 147.025 19.5901 147.025 20.9169C147.025 21.1381 147.016 21.3422 146.999 21.5293C146.982 21.7164 146.957 21.9205 146.923 22.1417H135.441V20.126H144.218L143.35 21.3762C143.35 21.2061 143.35 21.0445 143.35 20.8914C143.35 20.7383 143.35 20.5852 143.35 20.4321C143.35 19.4626 143.087 18.7652 142.56 18.3399C142.032 17.9147 141.173 17.702 139.982 17.702C138.69 17.702 137.788 17.9572 137.278 18.4675C136.768 18.9608 136.512 19.7517 136.512 20.8404V21.81C136.512 22.8986 136.768 23.6981 137.278 24.2084C137.788 24.7017 138.698 24.9483 140.008 24.9483C141.131 24.9483 141.922 24.8037 142.381 24.5146C142.84 24.2254 143.07 23.8087 143.07 23.2643V23.0092H146.897V23.2898C146.897 24.2084 146.616 25.0249 146.055 25.7393C145.494 26.4537 144.703 27.0151 143.682 27.4233C142.679 27.8145 141.496 28.0102 140.136 28.0102ZM157.91 27.755H154.746C153.249 27.755 152.075 27.3893 151.225 26.6579C150.374 25.9264 149.949 24.7527 149.949 23.1368V12.4969H153.776V22.703C153.776 23.3494 153.912 23.7831 154.184 24.0043C154.474 24.2084 154.95 24.3105 155.613 24.3105H157.91V27.755ZM157.91 18.1358H147.933V14.9719H157.91V18.1358Z"
        fill="#1C1917" />
    <defs>
        <linearGradient id="paint0_linear_40_10199" x1="21.6345" y1="0" x2="21.6345" y2="38.51"
            gradientUnits="userSpaceOnUse">
            <stop stop-color="#EE7641" />
            <stop offset="1" stop-color="#E84919" />
        </linearGradient>
        <linearGradient id="paint1_linear_40_10199" x1="13.9038" y1="20.2662" x2="13.9038"
            y2="37.9237" gradientUnits="userSpaceOnUse">
            <stop stop-color="#EE7641" />
            <stop offset="1" stop-color="#E84919" />
        </linearGradient>
    </defs>
</svg>
    