<svg width="211" height="238" viewBox="0 0 211 238" fill="none" xmlns="http://www.w3.org/2000/svg">
    <g clip-path="url(#clip0_738_287)">
        <path
            d="M172.266 108.34C171.293 103.895 170.295 99.4155 168.553 95.1827C166.384 89.8858 162.782 83.994 157.924 80.4233L155.573 87.3958C137.726 139.942 138.939 137.649 137.372 140.198C133.444 146.669 125.314 149.848 117.746 147.399L117.727 147.402C115.522 146.685 113.578 145.547 111.95 144.12L100.122 145.627C99.7916 146.437 99.5892 147.291 99.5908 148.177C99.6154 152.022 103.192 155.13 107.014 156.046C110.853 156.941 114.866 156.164 118.723 155.37L117.579 157.051C114.054 159.528 110.488 161.992 107.38 165.004C98.2135 173.907 94.7733 187.558 101.351 198.833C112.407 217.708 145.098 217.43 156.097 198.55C158.943 193.668 165.633 183.661 170.82 165.812C174.747 152.293 176.16 138.597 175.762 129.998C175.452 122.682 173.857 115.492 172.266 108.34Z"
            fill="#FAAAD5" />
        <path
            d="M140.148 120.452L137.33 111.882C138.122 111.857 138.924 111.906 139.754 112.028C140.069 112.064 140.315 112.316 140.401 112.685C141.227 115.973 141.135 118.449 140.148 120.452Z"
            fill="#FCA8D7" />
        <path
            d="M155.573 87.3952C154.185 91.5199 143.743 122.529 142.175 127.187C141.944 125.368 141.573 124.707 140.563 121.686C142.377 118.993 142.118 115.568 141.345 112.449C141.157 111.734 140.601 111.179 139.912 111.096C138.924 110.957 137.967 110.908 137.022 110.953C127.28 81.4348 130.64 91.6156 129.913 89.4131C129.979 89.4625 151.622 94.5525 151.788 94.5314C152.331 94.4622 152.333 93.7116 151.843 93.5953L130.27 88.5524C130.051 88.5047 129.814 88.6296 129.723 88.8305L126.025 77.624L155.573 87.3952Z"
            fill="#FBD072" />
        <path
            d="M115.331 155.933C116.377 156.331 120.33 154.695 121.634 154.025C122.194 153.732 122.645 154.568 122.078 154.858C120.416 155.712 118.647 156.365 116.823 156.794C113.925 157.476 114.536 155.625 115.331 155.933Z"
            fill="#062B28" />
        <path
            d="M152.911 87.0232C126.395 78.5179 126.071 78.4823 125.856 78.3284C125.359 77.9697 125.855 77.2458 126.358 77.5217L153.214 86.1289C153.827 86.3243 153.505 87.2179 152.911 87.0232Z"
            fill="#C9FF90" />
        <path
            d="M142.038 127.595C141.151 127.312 140.252 132.107 170.601 41.2966C171.02 40.0883 170.351 38.8228 169.145 38.4355L142.878 29.9137C141.668 29.5185 140.356 30.1578 139.947 31.3542L125.408 74.5121C125.211 75.1031 124.293 74.8159 124.495 74.2229L139.034 31.0629C139.617 29.3581 141.483 28.4613 143.187 29.0213L169.452 37.5416C171.176 38.0952 172.099 39.9101 171.513 41.5906C140.695 132.413 142.93 127.865 142.038 127.595Z"
            fill="#C9FF90" />
        <path
            d="M115.061 103.482C119.787 101.87 123.867 100.475 132.591 97.5004C133.168 97.2609 133.544 98.142 132.941 98.3747C132.72 98.467 132.563 98.532 132.38 98.5553L115.376 104.371C114.773 104.584 114.459 103.688 115.061 103.482Z"
            fill="#C9FF90" />
        <path
            d="M112.841 37.6369C112.937 35.5015 111.363 34.7161 109.888 35.1694L83.4691 43.5591C81.9967 44.0312 81.1845 45.5754 81.6587 47.0122L91.8668 78.4125L122.987 68.8552L112.841 37.6369ZM108.711 60.343L106.189 50.5981C106.063 49.9933 106.956 49.7437 107.129 50.3645L109.651 60.1094C109.825 60.7064 108.889 60.9522 108.711 60.343ZM116.947 65.6061C116.298 66.4251 116.014 63.7088 109.455 43.3384C109.291 42.7507 110.164 42.4514 110.387 43.0488L117.263 65.0351C117.351 65.2702 117.21 65.5348 116.947 65.6061Z"
            fill="#C9FF90" />
        <path
            d="M112.383 37.7852C112.367 37.7316 112.36 37.6761 112.362 37.6201C112.437 35.935 111.306 35.2244 110.031 35.619L83.6154 44.007C82.3938 44.3983 81.7249 45.6759 82.1159 46.8656L96.9076 91.6915C97.1019 92.2854 96.1866 92.5732 95.9897 91.9864L81.2018 47.16C80.643 45.4779 81.5945 43.6662 83.3211 43.1125L109.742 34.723C111.589 34.1514 113.385 35.2397 113.325 37.5687C135.797 106.404 135.444 103.123 134.541 103.413C133.687 103.685 135.437 107.098 112.383 37.7852Z"
            fill="#C9FF90" />
        <path
            d="M80.1347 81.3073L60.8162 107.976L92.8569 128.633L112.175 101.964L80.1347 81.3073ZM72.1983 107.02L82.5087 91.564C82.8506 91.0313 83.6803 91.5481 83.3099 92.0687L72.9995 107.524C72.6438 108.068 71.8456 107.515 72.1983 107.02ZM84.7201 101.462L80.9741 106.319C80.602 106.789 79.8402 106.266 80.2037 105.753L83.9498 100.897C84.3504 100.392 85.1206 100.956 84.7201 101.462Z"
            fill="#FBD072" />
        <path
            d="M95.9719 123.341C110.131 103.794 109.238 104.695 109.637 104.644C109.617 104.635 109.684 104.511 109.726 104.437L110.191 104.586L110.57 104.885C110.463 105.076 110.298 105.372 109.995 105.51L96.7567 123.881C96.406 124.375 95.5973 123.863 95.9719 123.341Z"
            fill="#559B36" />
        <path
            d="M119.431 145.236C114.618 144.085 119.622 146.093 38.6328 94.2547C37.1297 93.2747 36.7225 91.2828 37.726 89.814L53.1582 67.2038C54.1788 65.7091 56.2043 65.3151 57.7037 66.2931C131.154 113.921 128.275 111.25 127.75 112.026C127.238 112.795 131.158 114.524 57.1689 67.078C56.0924 66.3773 54.673 66.6758 53.9561 67.7234L38.5238 90.3327C37.8182 91.3704 38.1052 92.7767 39.1681 93.4693C118.554 144.302 115.14 143.241 119.664 144.321C120.274 144.467 120.059 145.384 119.431 145.236Z"
            fill="#C9FF90" />
        <path
            d="M138.701 123.837C135.647 126.375 132.208 124.388 131.122 120.84C130.736 119.638 130.494 118.19 130.399 116.686C125.162 114.62 127.62 115.988 35.3102 113.976C33.7736 113.945 32.4916 115.151 32.4501 116.653L31.7329 143.759C31.6915 145.261 32.8983 146.511 34.4537 146.54L99.6211 147.659C125.737 148.116 124.404 148.16 125.773 147.985C137.796 146.786 144.425 133.782 138.701 123.837ZM120.548 140.462C113.374 137.132 115.098 126.579 123.053 125.565C123.358 125.526 123.685 125.504 123.996 125.502C128.023 125.444 131.517 128.354 132.026 132.346C132.809 138.494 126.337 143.115 120.548 140.462ZM138.21 123.027C136.568 120.488 134.211 118.437 131.425 117.124C131.874 123.951 135.609 125.264 138.21 123.027Z"
            fill="#559B36" />
        <path
            d="M46.2702 147.447C45.6477 147.438 45.6327 146.519 46.2906 146.505C131.106 147.918 127.05 147.183 127.026 148.11C127.009 149.077 130.957 148.391 46.2702 147.447Z"
            fill="#062B28" />
        <path
            d="M140.152 120.45C140.109 120.569 140.063 120.67 139.999 120.773C137.215 125.667 133.287 124.592 132.037 120.555C131.462 118.645 131.25 116.176 131.308 114.221C131.325 113.745 131.616 113.291 132 113.109C134.539 111.985 137.07 111.633 139.757 112.026C140.072 112.062 140.318 112.315 140.404 112.683C141.23 115.972 141.138 118.447 140.152 120.45Z"
            fill="#FAAAD5" />
        <path
            d="M141.911 105.326C139.097 102.096 134.407 101.684 131.301 104.877C127.307 108.967 126.516 114.475 123.997 125.504C123.334 128.375 122.672 131.246 122.007 134.099C121.024 138.413 118.589 148.953 114.434 167.082L148.206 165.396C147.542 155.479 146.037 128.273 144.784 118.439C144.378 114.642 144.589 108.378 141.911 105.326ZM130.354 114.192C130.383 113.354 130.887 112.589 131.622 112.267C134.167 111.121 136.814 110.66 139.911 111.097C140.601 111.18 141.157 111.735 141.345 112.45C142.118 115.57 142.376 118.994 140.563 121.687C136.954 127.524 129.944 125.967 130.354 114.192Z"
            fill="#FAAAD5" />
        <path
            d="M113.969 166.977C116.479 155.982 119.009 144.991 121.542 134.001C126.336 113.22 126.779 108.827 130.951 104.544C134.249 101.167 139.285 101.58 142.277 105.01C145.065 108.206 144.844 114.552 145.254 118.378C146.916 133.916 147.028 139.964 148.064 155.578C148.103 156.209 147.144 156.259 147.102 155.645C146.831 151.545 146.623 148.108 146.434 144.989C145.291 126.095 144.359 119.916 144.097 115.928C143.864 112.374 143.573 107.95 141.544 105.623C138.919 102.615 134.543 102.223 131.646 105.19C127.767 109.171 127.349 113.099 122.482 134.203C119.948 145.191 117.419 156.182 114.909 167.177C114.772 167.785 113.829 167.588 113.969 166.977Z"
            fill="#062B28" />
        <path
            d="M163.473 63.7132C163.371 63.6854 163.27 63.6436 163.167 63.601C162.941 63.5067 162.819 63.5324 162.711 63.5025L135.651 55.644C135.042 55.466 135.321 54.5637 135.93 54.7413L162.908 62.5764C163.276 62.571 163.534 62.7492 163.741 62.8082C164.35 62.976 164.087 63.889 163.473 63.7132Z"
            fill="#C9FF90" />
        <path
            d="M61.5718 105.501L76.9049 85.0017L77.6336 84.3098C78.0972 83.8762 78.7596 84.5497 78.3035 84.9841L77.6274 85.615L62.3471 106.055C61.9775 106.551 61.1892 106.014 61.5718 105.501Z"
            fill="#C9FF90" />
        <path
            d="M92.0315 79.0922C91.7686 79.1257 91.5273 78.9442 91.4944 78.6863C91.4616 78.4285 91.6496 78.1923 91.9126 78.1588L92.0618 78.1398L120.148 69.4409C120.758 69.2591 121.039 70.1502 120.433 70.3383L92.0315 79.0922Z"
            fill="#07302C" />
        <path
            d="M46.3513 92.4733L60.05 73.6946C60.4152 73.1886 61.2061 73.7278 60.8318 74.2379L47.1331 93.0166C46.7793 93.5101 45.9723 92.9908 46.3513 92.4733Z"
            fill="#C9FF90" />
        <path
            d="M55.4392 91.4822L58.6466 87.0608C59.0255 86.5527 59.797 87.096 59.4321 87.602L56.2246 92.0233C55.8552 92.5277 55.0692 91.9956 55.4392 91.4822Z"
            fill="#C9FF90" />
        <path
            d="M107.521 140.187L62.1226 139.538C61.5009 139.529 61.4844 138.609 62.1429 138.596L107.541 139.246C108.16 139.255 108.178 140.178 107.521 140.187Z"
            fill="#C9FF90" />
        <path
            d="M90.2523 131.258C88.0092 131.339 80.3425 131.615 80.7586 131.6C80.1275 131.623 80.0832 130.682 80.7295 130.659L90.1786 130.321C90.7869 130.301 90.8565 131.182 90.2523 131.258Z"
            fill="#C9FF90" />
        <path
            d="M166.402 43.1811L144.792 37.5088C144.174 37.3451 144.438 36.4342 145.048 36.5998L166.657 42.2721C167.277 42.436 167.01 43.3456 166.402 43.1811Z"
            fill="#C9FF90" />
        <path
            d="M153.121 45.821L148.499 44.4122C147.892 44.2266 148.18 43.3291 148.79 43.5135L153.413 44.9223C154.02 45.1082 153.729 46.0047 153.121 45.821Z"
            fill="#C9FF90" />
        <path
            d="M151.149 156.423C149.108 156.189 147 156.43 145.063 157.128C144.482 157.354 144.124 156.466 144.734 156.246C146.813 155.497 149.07 155.234 151.269 155.489C151.904 155.562 151.777 156.501 151.149 156.423Z"
            fill="#062B28" />
        <path
            d="M58.4025 173.066C52.9504 173.761 48.4982 171.933 46.0326 169.138C45.6147 168.665 46.3532 168.053 46.7617 168.521C49.0479 171.111 52.9109 172.503 57.0942 172.245C64.974 171.752 71.5258 166.296 78.6833 163.292C79.2839 163.054 79.6367 163.913 79.059 164.157C72.181 167.042 66.0814 172.088 58.4025 173.066Z"
            fill="#C9FF90" />
        <path
            d="M66.996 186.129C70.3486 184.484 73.318 182.065 75.5816 179.133C75.9683 178.635 76.7329 179.2 76.3474 179.697C73.9964 182.745 70.9103 185.26 67.4217 186.97C66.8579 187.259 66.4241 186.408 66.996 186.129Z"
            fill="#C9FF90" />
        <path
            d="M88.5809 173.637C89.0846 173.242 89.6784 173.967 89.1924 174.362C75.4238 185.5 81.3021 201.272 86.3677 199.181C86.9704 198.945 87.3166 199.811 86.736 200.049C80.1071 202.741 74.1897 185.289 88.5809 173.637Z"
            fill="#C9FF90" />
        <path
            d="M173.286 155.592C179.276 128.062 170.829 105.795 169.975 101.196C169.896 100.578 170.851 100.457 170.93 101.074C171.834 105.952 180.247 128.107 174.228 155.783C174.093 156.395 173.155 156.202 173.286 155.592Z"
            fill="#062B28" />
        <path
            d="M25.8107 87.3775C21.4394 84.5094 21.0572 77.6243 26.3384 73.8292C25.1635 69.7704 27.4872 65.5173 30.8878 63.0548C29.7747 60.1057 30.4423 56.3897 32.7432 53.8261C35.2567 51.0273 39.4641 49.5881 43.7268 50.059C44.3514 50.1289 44.253 51.0578 43.6109 50.9943C35.3384 50.0725 29.6152 56.47 31.7183 62.5337C34.3179 61.1753 36.7401 62.7079 36.3975 64.7702C36.0573 66.8339 33.0983 67.3221 31.2866 63.9373C28.3999 66.1734 26.3216 69.7172 27.1861 73.2826C31.5713 70.7595 34.3193 73.4408 33.5736 75.9367C32.7523 78.685 28.5708 79.0424 26.6743 74.7567C22.2423 78.1545 22.5225 84.0818 26.3519 86.5951C26.8774 86.9409 26.3418 87.7225 25.8107 87.3775ZM27.4841 74.2034C28.0871 75.6994 29.4756 77.2185 30.9984 77.0431C31.0057 77.0422 31.0134 77.0412 31.0206 77.0403C32.719 76.8239 33.3252 74.7034 32.0071 73.6679C30.7944 72.7133 28.8225 73.3887 27.4841 74.2034ZM32.0913 63.4055C32.2578 63.7299 32.4528 64.0392 32.6755 64.3306C33.283 65.1258 34.3003 65.7474 35.0169 65.3151C35.5706 64.9817 35.6028 64.0612 35.1667 63.561C34.6373 62.9524 33.4415 62.6661 32.0913 63.4055Z"
            fill="#DBF964" />
    </g>
    <defs>
        <clipPath id="clip0_738_287">
            <rect width="170.12" height="205.766" fill="white"
                transform="translate(0 36.7656) rotate(-12.481)" />
        </clipPath>
    </defs>
</svg>
    