<svg width="259" height="282" viewBox="0 0 259 282" fill="none" xmlns="http://www.w3.org/2000/svg">
    <path
        d="M156.381 108.634C156.234 109.264 156.443 110.401 156.583 111.034C156.658 110.198 156.583 109.362 156.381 108.634Z"
        fill="#ADAAFA" />
    <path
        d="M68.4538 119.775C68.7032 119.775 68.9043 119.326 68.9043 118.771V28.8856C68.9043 28.3305 68.7032 27.8809 68.4538 27.8809C68.2045 27.8809 68.0034 28.3305 68.0034 28.8856V118.771C68.0034 119.326 68.2045 119.775 68.4538 119.775Z"
        fill="#C9FF90" />
    <path
        d="M68.5383 30.1882H203.417C203.764 30.1882 204.044 29.8865 204.044 29.5139V11.1524C204.044 5.47415 199.74 0.853516 194.447 0.853516H77.508C72.2152 0.853516 67.9111 5.47415 67.9111 11.1524V29.5139C67.9111 29.8859 68.1911 30.1882 68.5383 30.1882ZM202.79 28.8389H69.1655V11.1524C69.1655 6.217 72.9096 2.20221 77.508 2.20221H194.447C199.045 2.20221 202.79 6.21641 202.79 11.1524V28.8389Z"
        fill="#C9FF90" />
    <path
        d="M108.272 77.8799H173.156C173.503 77.8799 173.783 77.5782 173.783 77.2056C173.783 76.833 173.503 76.5312 173.156 76.5312H108.272C107.925 76.5312 107.645 76.833 107.645 77.2056C107.645 77.5782 107.925 77.8799 108.272 77.8799Z"
        fill="#C9FF90" />
    <path
        d="M157.462 64.1465H190.196C190.543 64.1465 190.823 63.8448 190.823 63.4722C190.823 63.0996 190.543 62.7979 190.196 62.7979H157.462C157.115 62.7979 156.835 63.0996 156.835 63.4722C156.835 63.8448 157.115 64.1465 157.462 64.1465Z"
        fill="#02403A" />
    <path
        d="M187.507 205.912C187.533 206.128 187.557 206.343 187.607 206.56C189.341 208.69 190.773 211.035 191.526 213.705C191.526 213.731 191.526 213.731 191.526 213.758C191.728 213.974 191.953 214.19 192.18 214.433C192.456 214.729 192.833 214.81 193.109 214.675C195.872 213.327 198.033 211.305 199.665 208.528C199.917 208.123 199.892 207.477 199.64 207.018C198.283 204.645 196.6 202.462 194.968 201.005C193.234 199.442 190.647 198.66 189.014 200.17C187.884 201.221 187.331 203.378 187.507 205.912Z"
        fill="#FAAAD5" />
    <path
        d="M176.176 193.053C178.092 197.165 182.465 200.684 186.2 204.943C186.2 199.022 189.866 196.751 193.837 198.688C196.463 199.897 199.208 203.696 200.695 206.318C201.223 207.235 201.223 208.394 200.745 209.23C199.037 212.115 196.826 214.245 193.987 215.727C193.711 215.875 193.433 216.078 192.832 216.078C192.53 216.078 192.204 215.997 191.927 215.863C192.475 220.509 189.756 228.034 205.468 240.613C214.903 248.26 226.42 254.553 238.176 253.151C244.532 252.369 251.39 248.917 255.334 243.309C259.504 237.378 259.454 229.262 258.399 222.252C255.434 202.705 243.477 186.582 230.187 173.479C228.529 171.834 226.846 170.243 225.163 168.706C222.45 166.253 218.983 163.718 216.245 165.578C214.737 166.603 214.084 168.706 214.21 170.836C214.466 175.373 217.408 178.974 219.787 182.456C215.891 179.703 211.223 178.182 207.477 181.136C219.535 197.528 219.586 197.771 219.61 197.879C219.736 198.229 219.585 198.688 219.259 198.795C218.922 198.886 218.579 198.772 218.48 198.418C218.179 197.906 212.953 190.788 206.522 182.053C205.693 182.996 205.14 184.237 204.965 185.692C203.115 183.608 200.074 183.031 197.729 183.805C193.993 185.042 193.92 191.452 196.021 194.994C193.933 192.192 192.073 189.761 188.56 186.744C186.651 185.1 184.566 183.671 182.355 183.077C176.805 181.567 173.313 186.879 176.176 193.053Z"
        fill="#FAAAD5" />
    <path
        d="M206.523 182.051C205.694 182.995 205.142 184.236 204.966 185.691C204.463 185.125 203.886 184.667 203.233 184.316V177.603C204.363 179.113 205.443 180.622 206.523 182.051ZM189.014 200.17C190.646 198.66 193.234 199.442 194.968 201.005C196.6 202.461 198.283 204.645 199.64 207.018C199.891 207.476 199.917 208.123 199.665 208.528C198.033 211.305 195.872 213.327 193.109 214.675C192.832 214.81 192.455 214.729 192.179 214.433C191.953 214.19 191.727 213.974 191.526 213.758C189.39 211.441 187.881 209.119 187.507 205.912C187.33 203.378 187.883 201.221 189.014 200.17ZM206.523 182.051C205.694 182.995 205.142 184.236 204.966 185.691C204.463 185.125 203.886 184.667 203.233 184.316V177.603C204.363 179.113 205.443 180.622 206.523 182.051ZM206.523 182.051C205.694 182.995 205.142 184.236 204.966 185.691C204.463 185.125 203.886 184.667 203.233 184.316V177.603C204.363 179.113 205.443 180.622 206.523 182.051ZM206.523 182.051C205.694 182.995 205.142 184.236 204.966 185.691C204.463 185.125 203.886 184.667 203.233 184.316V177.603C204.363 179.113 205.443 180.622 206.523 182.051ZM120.282 131.849H214.939L230.188 147.487V210.496C230.188 213.381 228.002 215.727 225.289 215.727H193.987C196.826 214.244 199.037 212.114 200.745 209.229C201.223 208.394 201.223 207.234 200.695 206.317C199.211 203.7 196.466 199.897 193.837 198.688C189.784 196.711 185.786 199.071 186.25 206.048C186.501 209.202 188.11 212.195 191.325 215.43C191.425 215.539 191.551 215.619 191.676 215.727H121.312C118.623 215.727 116.438 213.381 116.438 210.496V135.974C116.438 133.682 118.146 131.849 120.282 131.849ZM138.143 146.111C134.475 146.111 131.536 149.266 131.536 153.176C131.536 157.085 134.475 160.266 138.143 160.266C141.76 160.266 144.725 157.085 144.725 153.176C144.725 149.266 141.76 146.111 138.143 146.111ZM148.116 166.117C146.523 165.72 144.751 166.358 143.694 168.058C143.494 168.328 143.318 168.57 143.091 168.787C142.815 169.083 142.413 169.191 142.213 169.029C142.031 168.932 141.303 167.29 139.776 166.522C138.847 166.037 137.791 165.983 136.887 166.36C136.082 166.706 135.525 167.29 134.777 167.978C134.551 168.167 133.747 168.733 133.144 168.463C132.324 168.125 131.832 165.417 128.999 165.012C126.661 164.738 124.866 166.24 123.196 168.032C122.614 168.655 123.468 169.654 124.075 169.003C124.703 168.328 125.457 167.547 126.311 167.007C128.164 165.848 129.919 166.275 130.909 167.655C131.438 168.508 131.819 169.346 132.667 169.704C133.496 170.081 134.551 169.838 135.531 169.029C136.519 168.234 137.447 166.807 139.249 167.735C140.594 168.425 140.838 169.681 141.51 170.161C142.211 170.709 143.293 170.44 143.922 169.81C144.577 169.166 144.597 168.869 145.128 168.301C145.806 167.546 146.886 167.195 147.816 167.438C148.595 167.678 148.92 166.383 148.116 166.117ZM223.505 145.464C223.305 145.168 222.928 145.087 222.626 145.275C221.431 146.139 218.05 148.065 216.697 147.81C215.673 147.634 214.901 146.264 213.784 145.464C211.975 144.17 209.312 144.521 207.603 146.3C207.377 146.515 207.176 146.758 206.95 147.001C206.373 147.702 205.82 148.349 205.167 148.376C204.639 148.43 204.187 147.999 203.935 147.783C203.08 146.864 201.459 143.737 198.711 144.009C198.032 144.09 197.354 144.386 196.675 144.899C195.269 145.977 194.415 147.622 193.661 149.078C193.485 149.401 193.611 149.806 193.912 149.995C194.215 150.157 194.582 150.08 194.766 149.725C195.445 148.404 196.224 146.894 197.404 146.004C198.703 145.028 200.084 144.939 201.851 147.164C202.039 147.427 202.938 148.732 203.232 148.889C203.809 149.405 204.445 149.725 205.191 149.725C206.658 149.659 207.444 148.359 208.457 147.271C209.739 145.95 211.773 145.653 213.105 146.597C214.21 147.419 214.953 148.874 216.471 149.159C218.251 149.5 221.82 147.48 223.329 146.409C223.606 146.192 223.682 145.788 223.505 145.464ZM157.888 198.687C158.15 198.499 155.856 201.535 188.109 157.112C188.94 158.231 217.788 197.24 218.481 198.417C218.58 198.771 218.922 198.885 219.26 198.794C219.586 198.686 219.737 198.228 219.611 197.878C219.464 197.247 196.159 165.831 188.611 155.602C188.332 155.243 187.886 155.242 187.606 155.602L171.478 177.845C171.478 177.792 171.453 177.737 171.403 177.684L160.953 163.205C160.673 162.845 160.226 162.847 159.948 163.205L135.379 196.989C135.179 197.285 135.229 197.717 135.505 197.932C135.751 198.197 136.157 198.117 136.385 197.824L160.451 164.715L170.424 178.52C170.524 178.655 170.65 178.735 170.801 178.762L157.084 197.662C156.883 197.959 156.934 198.391 157.21 198.633C157.236 198.66 157.26 198.66 157.286 198.687H157.888ZM206.523 182.051C205.694 182.995 205.142 184.236 204.966 185.691C204.463 185.125 203.886 184.667 203.233 184.316V177.603C204.363 179.113 205.443 180.622 206.523 182.051ZM206.523 182.051C205.694 182.995 205.142 184.236 204.966 185.691C204.463 185.125 203.886 184.667 203.233 184.316V177.603C204.363 179.113 205.443 180.622 206.523 182.051ZM206.523 182.051C205.694 182.995 205.142 184.236 204.966 185.691C204.463 185.125 203.886 184.667 203.233 184.316V177.603C204.363 179.113 205.443 180.622 206.523 182.051Z"
        fill="#C9FF90" />
    <path
        d="M120.914 200.3H181.379C181.726 200.3 182.006 199.998 182.006 199.626C182.006 199.253 181.726 198.951 181.379 198.951H120.914C120.567 198.951 120.287 199.253 120.287 199.626C120.287 199.998 120.567 200.3 120.914 200.3Z"
        fill="#C9FF90" />
    <path
        d="M214.493 145.283C214.452 146.495 215.357 147.502 216.488 147.502H230.202C226.494 143.695 214.152 131.02 214.945 131.833L214.493 145.283Z"
        fill="#01014F" />
    <path
        d="M187.507 205.912C187.881 209.119 189.388 211.438 191.526 213.758C191.728 213.974 191.953 214.19 192.18 214.433C192.456 214.729 192.833 214.81 193.109 214.675C195.872 213.327 198.033 211.305 199.665 208.528C199.917 208.123 199.892 207.477 199.64 207.018C198.283 204.645 196.6 202.462 194.968 201.005C193.234 199.442 190.647 198.66 189.014 200.17C187.884 201.221 187.331 203.378 187.507 205.912Z"
        fill="#FAAAD5" />
    <path
        d="M181.252 199.386C181.302 199.144 181.378 198.901 181.479 198.686C183.18 193.574 188.98 190.407 195.119 193.778C200.074 196.437 202.387 201.849 207.353 207.475C208.559 208.877 209.866 210.602 211.348 211.708C211.423 211.761 211.473 211.843 211.549 211.923C212.444 212.748 215.627 216.29 217.578 217.531C216.046 220.229 207.439 227.911 196.802 231.982C196.752 232.01 196.727 232.01 196.676 232.036C190.227 223.776 188.522 220.83 184.819 213.729C182.295 209.059 180.034 204.612 181.252 199.386ZM193.638 215.914C193.763 215.861 193.889 215.779 193.989 215.725C196.828 214.243 199.039 212.112 200.747 209.228C201.225 208.392 201.225 207.232 200.697 206.316C199.213 203.698 196.468 199.895 193.839 198.686C189.786 196.709 185.788 199.07 186.253 206.047C186.503 209.201 188.112 212.194 191.327 215.429C191.937 216.086 192.908 216.227 193.638 215.914Z"
        fill="#FAAAD5" />
    <path
        d="M219.012 218.186C215.711 216.341 208.917 208.584 206.181 205.033C205.958 204.747 205.563 204.708 205.297 204.945C205.029 205.182 204.993 205.606 205.214 205.894C207.421 208.755 214.653 217.268 218.432 219.382C219.165 219.795 219.75 218.598 219.012 218.186Z"
        fill="#02403A" />
    <path
        d="M250.981 249.3C251.283 249.114 251.385 248.702 251.211 248.379C251.041 248.054 250.651 247.949 250.354 248.134C241.393 253.69 230.037 254.156 220.713 249.35C220.399 249.186 220.026 249.331 219.873 249.666C219.724 250.001 219.856 250.405 220.167 250.565C229.833 255.547 241.644 255.096 250.981 249.3Z"
        fill="#C9FF90" />
    <path
        d="M183.795 15.1695C183.795 17.1524 185.293 18.755 187.136 18.755C188.983 18.755 190.477 17.1524 190.477 15.1695C190.477 13.1919 188.983 11.584 187.136 11.584C185.293 11.5834 183.795 13.1919 183.795 15.1695Z"
        fill="#FCA8D7" />
    <path
        d="M169.97 15.1695C169.97 17.1524 171.468 18.755 173.311 18.755C175.158 18.755 176.651 17.1524 176.651 15.1695C176.651 13.1919 175.158 11.584 173.311 11.584C171.468 11.5834 169.97 13.1919 169.97 15.1695Z"
        fill="#C9FF90" />
    <path
        d="M156.147 15.1695C156.147 17.1524 157.645 18.755 159.487 18.755C161.335 18.755 162.828 17.1524 162.828 15.1695C162.828 13.1919 161.334 11.584 159.487 11.584C157.645 11.5834 156.147 13.1919 156.147 15.1695Z"
        fill="#01B990" />
    <path
        d="M30.6242 191.213H34.064C34.4112 191.213 34.6913 190.911 34.6913 190.538C34.6913 190.166 34.4112 189.864 34.064 189.864H31.2515V180.751C31.2515 180.378 30.9714 180.076 30.6242 180.076C30.2771 180.076 29.997 180.378 29.997 180.751V190.538C29.997 190.911 30.2771 191.213 30.6242 191.213ZM46.6249 191.213H59.1857C59.5329 191.213 59.8129 190.911 59.8129 190.538C59.8129 190.166 59.5329 189.864 59.1857 189.864H46.6249C46.2777 189.864 45.9977 190.166 45.9977 190.538C45.9977 190.911 46.2777 191.213 46.6249 191.213ZM71.7465 191.213H84.3073C84.6545 191.213 84.9346 190.911 84.9346 190.538C84.9346 190.166 84.6545 189.864 84.3073 189.864H71.7465C71.3994 189.864 71.1193 190.166 71.1193 190.538C71.1193 190.911 71.3994 191.213 71.7465 191.213ZM89.9616 183.799C90.3088 183.799 90.5889 183.497 90.5889 183.125V169.644C90.5889 169.271 90.3088 168.969 89.9616 168.969C89.6145 168.969 89.3344 169.271 89.3344 169.644V183.125C89.3344 183.497 89.6145 183.799 89.9616 183.799ZM30.6242 167.944C30.9714 167.944 31.2515 167.642 31.2515 167.27V153.789C31.2515 153.416 30.9714 153.114 30.6242 153.114C30.2771 153.114 29.997 153.416 29.997 153.789V167.27C29.997 167.642 30.2771 167.944 30.6242 167.944ZM89.9616 156.837C90.3088 156.837 90.5889 156.535 90.5889 156.163V142.682C90.5889 142.309 90.3088 142.007 89.9616 142.007C89.6145 142.007 89.3344 142.309 89.3344 142.682V156.163C89.3344 156.535 89.6145 156.837 89.9616 156.837ZM30.6242 140.982C30.9714 140.982 31.2515 140.68 31.2515 140.308V127.501H41.9306C42.2778 127.501 42.5579 127.199 42.5579 126.827C42.5579 126.454 42.2778 126.152 41.9306 126.152H30.6242C30.2771 126.152 29.997 126.454 29.997 126.827V140.308C29.997 140.68 30.2771 140.982 30.6242 140.982ZM89.9616 129.875C90.3088 129.875 90.5889 129.574 90.5889 129.201V126.827C90.5889 126.455 90.3088 126.153 89.9616 126.153H79.6131C79.266 126.153 78.9859 126.455 78.9859 126.827C78.9859 127.2 79.266 127.502 79.6131 127.502H89.3344V129.201C89.3344 129.574 89.6145 129.875 89.9616 129.875ZM54.4915 127.502H67.0523C67.3995 127.502 67.6795 127.2 67.6795 126.827C67.6795 126.455 67.3995 126.153 67.0523 126.153H54.4915C54.1443 126.153 53.8643 126.455 53.8643 126.827C53.8643 127.199 54.1443 127.502 54.4915 127.502Z"
        fill="#C9FF90" />
    <path
        d="M43.2599 137.025H77.3249C79.058 137.025 80.4648 138.535 80.4648 140.395V176.955C80.4648 178.816 79.058 180.325 77.3249 180.325H43.2599C41.5268 180.325 40.12 178.815 40.12 176.955V140.395C40.12 138.535 41.5268 137.025 43.2599 137.025ZM50.4955 160.023C50.4955 160.967 51.1986 161.722 52.0778 161.722H57.479V167.519C57.479 168.463 58.1827 169.218 59.0619 169.218H61.5488C62.4285 169.218 63.1317 168.463 63.1317 167.519V161.722H68.5329C69.4121 161.722 70.1158 160.968 70.1158 160.023V157.354C70.1158 156.411 69.4121 155.656 68.5329 155.656H63.1317V149.859C63.1317 148.915 62.4285 148.16 61.5488 148.16H59.0619C58.1827 148.16 57.479 148.914 57.479 149.859V155.656H52.0778C51.1986 155.656 50.4955 156.411 50.4955 157.354V160.023Z"
        fill="#FBD072" />
    <path
        d="M84.5598 123.297V131.053C84.5598 132.143 85.3829 133.026 86.398 133.026H93.6247C94.6398 133.026 95.4629 132.143 95.4629 131.053V123.297C95.4629 122.208 94.6398 121.324 93.6247 121.324H86.398C85.3829 121.325 84.5598 122.208 84.5598 123.297Z"
        fill="#C9FF90" />
    <path
        d="M25.6613 123.297V131.053C25.6613 132.143 26.4844 133.026 27.4995 133.026H34.7263C35.7414 133.026 36.5645 132.143 36.5645 131.053V123.297C36.5645 122.208 35.7414 121.324 34.7263 121.324H27.4995C26.4839 121.325 25.6613 122.208 25.6613 123.297Z"
        fill="#C9FF90" />
    <path
        d="M25.6613 185.549V193.305C25.6613 194.395 26.4844 195.278 27.4995 195.278H34.7263C35.7414 195.278 36.5645 194.395 36.5645 193.305V185.549C36.5645 184.46 35.7414 183.576 34.7263 183.576H27.4995C26.4839 183.576 25.6613 184.46 25.6613 185.549Z"
        fill="#C9FF90" />
    <path
        d="M84.5598 185.549V193.305C84.5598 194.395 85.3829 195.278 86.398 195.278H93.6247C94.6398 195.278 95.4629 194.395 95.4629 193.305V185.549C95.4629 184.46 94.6398 183.576 93.6247 183.576H86.398C85.3829 183.576 84.5598 184.46 84.5598 185.549Z"
        fill="#C9FF90" />
    <path
        d="M203.593 112.568C203.843 112.568 204.044 112.218 204.044 111.786V29.122C204.044 28.69 203.843 28.7929 203.593 28.7929C203.344 28.7929 203.143 28.69 203.143 29.122V111.786C203.143 112.218 203.344 112.568 203.593 112.568Z"
        fill="#C9FF90" />
    <path
        d="M227.647 125.115C232.879 117.923 240.067 112.05 248.627 112.313C249.452 112.394 249.509 110.991 248.666 110.966C239.681 110.669 232.13 116.765 226.657 124.286C226.148 124.985 227.13 125.82 227.647 125.115Z"
        fill="#C9FF90" />
    <path
        d="M243.536 132.598C241.039 131.575 238.32 131.178 235.66 131.457C235.315 131.493 235.061 131.822 235.095 132.191C235.126 132.562 235.451 132.837 235.779 132.798C238.245 132.544 240.776 132.908 243.085 133.857C243.859 134.178 244.314 132.916 243.536 132.598Z"
        fill="#C9FF90" />
    <path
        d="M223.329 121.594C224.509 118.543 224.717 115.105 223.917 111.916C223.703 111.052 222.489 111.406 222.706 112.265C223.434 115.17 223.242 118.299 222.169 121.078C222.035 121.422 222.189 121.816 222.507 121.959C222.832 122.101 223.195 121.937 223.329 121.594Z"
        fill="#C9FF90" />
    <path
        d="M52.2019 90.9937C50.0237 85.0049 50.3131 78.223 52.9821 72.8537C53.1994 72.4131 52.9172 71.8492 52.3741 71.8646C49.1808 72.1533 45.8868 72.4527 42.77 71.6154C40.9219 71.1194 38.7916 70.0057 37.3165 68.22C36.8736 67.267 36.3686 66.3458 35.8035 65.4659C35.3881 64.8241 34.4539 65.3319 34.6927 66.0712C35.0277 67.0975 35.557 68.0647 36.2464 68.9375C37.3787 71.4182 38.0609 74.1315 38.2431 76.9251C38.4994 80.8212 38.3817 82.6931 36.1606 85.5617C35.7672 86.0707 36.2244 86.8171 36.8093 86.6423C41.8793 85.1691 47.9 87.2807 51.1246 91.6586C51.5797 92.2633 52.4649 91.7047 52.2019 90.9937ZM51.3711 73.3066C49.3651 77.9892 48.9608 83.5204 50.2053 88.7244C46.9399 85.7867 42.3486 84.3465 38.1259 84.9795C39.6554 82.4516 39.7247 80.2868 39.4975 76.8283C39.366 74.8283 38.9946 72.8655 38.3966 70.9906C42.222 73.776 46.7881 73.6939 51.3711 73.3066Z"
        fill="#C9FF90" />
    <path
        d="M126.001 226.031C126.762 225.708 126.332 224.462 125.541 224.774C121.601 226.431 116.595 225.756 112.48 223.021C108.933 220.663 105.924 216.908 103.537 211.861C103.379 211.525 102.998 211.4 102.692 211.564C102.383 211.732 102.258 212.138 102.417 212.471C108.612 225.563 118.686 229.093 126.001 226.031Z"
        fill="#C9FF90" />
    <path
        d="M115.147 235.639C115.943 235.442 115.696 234.139 114.865 234.326C111.149 235.25 107.159 234.527 103.925 232.335C103.635 232.133 103.245 232.23 103.058 232.546C102.874 232.861 102.96 233.277 103.255 233.476C106.776 235.861 111.117 236.641 115.147 235.639Z"
        fill="#C9FF90" />
    <path
        d="M100.391 96.6046H173.211C173.558 96.6046 173.838 96.3028 173.838 95.9302C173.838 95.5576 173.558 95.2559 173.211 95.2559H100.391C100.044 95.2559 99.7637 95.5576 99.7637 95.9302C99.7637 96.3028 100.044 96.6046 100.391 96.6046Z"
        fill="#02403A" />
    <rect x="63" y="62.8535" width="117" height="44" rx="4" fill="#559B36" />
    <mask id="mask0_738_196" style="mask-type:alpha" maskUnits="userSpaceOnUse" x="63" y="61"
        width="117" height="45">
        <rect x="63" y="61.8535" width="117" height="44" rx="4" fill="#C9FF90" />
    </mask>
    <g mask="url(#mask0_738_196)">
        <rect width="131.89" height="0.972696"
            transform="matrix(0.938258 0.345936 0.345936 -0.938258 60.2656 62.3828)" fill="#C9FF90" />
        <rect width="131.89" height="0.972696"
            transform="matrix(-0.942837 0.333254 0.333254 0.942837 183.352 61.8535)" fill="#C9FF90" />
    </g>
</svg>
    