<svg width="241" height="264" viewBox="0 0 241 264" fill="none" xmlns="http://www.w3.org/2000/svg">
    <g clip-path="url(#clip0_700_3795)">
        <path
            d="M223.19 260.524C222.789 260.524 222.449 260.22 222.409 259.813C222.255 258.145 224.804 259.666 236.528 256.574C256.458 251.319 273.207 238.675 284.07 229.624C284.858 228.959 285.874 230.158 285.074 230.832C266.716 246.126 247.106 258.258 223.264 260.521C223.24 260.524 223.215 260.524 223.19 260.524Z"
            fill="#C9FF90" />
        <path
            d="M220.707 261.535C219.68 261.535 219.665 259.995 220.682 259.966C244.518 259.243 268.012 251.589 286.835 238.415C287.7 237.824 288.58 239.112 287.735 239.703C268.664 253.047 244.867 260.8 220.731 261.535C220.722 261.535 220.713 261.535 220.707 261.535Z"
            fill="#C9FF90" />
        <path
            d="M294.525 215.515C290.383 221.822 284.641 226.968 278.711 231.863C269.517 239.487 259.602 246.735 248.62 252.477C247.208 252.572 244.855 254.36 243.506 254.988C239.886 256.735 233.553 259.27 227.597 260.918C225.723 261.459 218.93 263.846 216.553 263.052C241.895 251.392 263.386 229.062 275.417 197.348C280.939 202.839 286.838 207.702 293.428 211.31C294.964 212.126 295.466 214.04 294.525 215.515Z"
            fill="#559B36" />
        <path
            d="M207.971 260.851C207.125 259.429 206.402 257.829 205.768 255.963C205.468 255.084 206.682 254.516 207.168 255.283L209.47 258.856C216.511 238.139 218.141 214.196 186.859 180.339C186.749 180.216 186.678 180.066 186.657 179.904C184.402 161.96 178.482 144.947 168.557 127.896C168.367 127.571 168.434 127.16 168.716 126.912C179.728 117.225 188.303 105.977 193.863 92.6511C194.736 90.6034 197.355 90.1957 198.803 91.7653C225.498 120.712 252.776 148.198 279.875 173.46C281.481 174.992 282.165 177.239 281.671 179.328C271.706 221.461 246.213 250.775 215.993 264.206C211.847 266.053 210.456 264.967 207.971 260.851ZM210.098 261.301C211.657 263.62 212.614 264.349 216.171 262.364C249.66 246.952 271.459 215.712 280.145 178.966C280.513 177.418 279.995 175.745 278.797 174.599C251.675 149.32 224.37 121.807 197.65 92.8286C196.917 92.0265 195.702 92.3399 195.309 93.2609C189.672 106.765 181.037 118.054 170.235 127.662C180.028 144.635 185.899 161.586 188.182 179.46C220.613 214.658 218.039 239.404 210.418 260.899C210.361 261.068 210.245 261.209 210.098 261.301Z"
            fill="#C9FF90" />
        <path
            d="M241.622 192.013C238.408 213.125 237.65 225.206 223.674 245.951C222.733 247.394 211.468 262.643 210.684 262.079C209.994 261.577 209.304 261.012 208.644 260.447C207.766 258.973 207.075 257.372 206.51 255.709L209.68 260.635C218.214 236.568 217.524 212.376 187.433 179.807C183.868 151.432 171.251 126.997 153.263 104.282C153.355 99.2467 153.164 94.5148 151.946 88.0914C151.287 84.6087 146.831 75.9173 155.115 78.4586C157.563 79.2113 159.445 80.9999 161.234 82.7258C176.923 97.9024 193.931 115.036 209.241 130.733C218.529 140.209 229.354 148.9 237.575 158.815C246.015 168.95 243.473 179.995 241.622 192.013Z"
            fill="#C9FF90" />
        <path
            d="M86.5238 264.464L34.6571 156.055C33.2213 156.318 20.6768 158.618 21.4788 158.471C20.0353 158.722 19.1572 160.259 19.6276 161.64C36.6027 209.522 61.3277 254.894 90.729 297.912C92.5176 300.485 96.0004 301.207 98.6987 299.638C132.178 280.184 169.674 267.664 208.363 259.475C165.156 243.158 123.957 242.186 86.5238 264.464ZM196.972 258.627C196.407 258.564 195.811 258.502 195.247 258.47C195.278 258.533 195.278 258.595 195.278 258.658C195.247 259.097 194.87 259.38 194.431 259.411C183.386 258.738 156.052 265.083 144.634 268.73C121.54 276.161 111.927 284.796 110.841 284.796C110.083 284.796 109.721 283.806 110.402 283.352C130.854 269.27 153.975 263.545 178.209 259.317C181.598 258.721 184.955 258.188 188.25 257.936C135.665 254.875 95.5962 272.495 93.5527 272.495C92.6901 272.495 92.4754 271.307 93.302 270.989C128.539 258.376 163.462 253.732 197.13 257.089C197.538 257.121 197.852 257.497 197.82 257.936C197.788 258.376 197.412 258.69 196.972 258.627Z"
            fill="#559B36" />
        <path
            d="M209.683 261.421C208.86 261.421 213.484 267.703 142.755 158.363L109.04 65.2941C107.945 62.2718 111.68 59.7791 114.044 61.9726C149.617 94.4532 182.059 131.489 188.185 179.46C220.617 214.658 218.043 239.404 210.422 260.9C210.324 261.181 210.073 261.38 209.776 261.414C209.745 261.419 209.714 261.421 209.683 261.421ZM110.517 64.761L144.152 157.67L209.472 258.856C216.514 238.139 218.144 214.196 186.862 180.339C186.751 180.217 186.681 180.067 186.66 179.904C180.697 132.462 148.651 95.6918 112.981 63.1274C111.813 62.0388 109.983 63.2851 110.517 64.761Z"
            fill="#C9FF90" />
        <path
            d="M212.917 221.827C212.917 221.827 212.905 221.829 212.905 221.844C209.95 209.605 202.444 196.066 187.43 179.82C184.65 157.52 176.654 137.869 164.309 119.177C164.34 119.15 164.371 119.123 164.403 119.096C165.09 119.858 165.758 120.631 166.439 121.388C200.647 157.84 214.26 189.437 212.917 221.827Z"
            fill="#C9FF90" />
        <path
            d="M85.8177 264.803L34.0298 156.56C33.7334 156.244 32.9461 154.341 27.2368 142.4C27.065 142.042 27.191 141.613 27.5248 141.401C51.407 126.295 90.5123 131.623 143.753 157.23C144.148 157.423 141.148 153.021 209.026 259.053C209.444 259.711 208.746 260.486 208.088 260.209C161.619 242.664 121.985 244.272 86.9267 265.14C86.5366 265.374 86.0184 265.223 85.8177 264.803ZM35.2557 155.555C35.5501 155.869 35.2424 155.48 86.8627 263.354C121.623 242.977 160.771 241.193 206.44 257.924L142.873 158.549C90.6961 133.487 52.3752 128.042 28.9557 142.358L35.2557 155.555Z"
            fill="#C9FF90" />
        <path
            d="M65.4427 158.634C60.6749 150.462 60.6777 150.358 60.684 150.051C60.696 149.648 60.9756 149.308 61.5114 149.285C64.6984 149.457 67.8362 149.647 70.9183 149.855C72.0139 149.925 71.7773 151.583 70.814 151.417C68.1847 151.24 65.5131 151.077 62.8071 150.927C63.3986 151.981 64.5534 153.997 66.7968 157.843C67.3179 158.738 65.9518 159.522 65.4427 158.634Z"
            fill="#C9FF90" />
        <path
            d="M77.1986 178.615C76.6684 177.717 78.0295 176.924 78.5471 177.819C80.7687 181.578 82.5002 184.498 83.1093 185.528C86.1336 185.415 89.1242 185.329 92.0753 185.274C93.252 185.493 93.0041 186.824 92.1063 186.843C89.0115 186.902 85.8766 186.993 82.7051 187.113C82.1411 187.324 81.939 186.646 77.1986 178.615Z"
            fill="#C9FF90" />
        <path
            d="M118.77 187.216C116.652 187.127 112.612 186.882 105.426 186.79C104.39 186.775 104.406 185.221 105.435 185.221C107.194 185.26 111.751 185.28 118.811 185.647C119.827 185.704 119.779 187.216 118.77 187.216Z"
            fill="#C9FF90" />
        <path
            d="M141.405 189.408C141.369 189.408 141.329 189.405 141.292 189.399C138.323 188.964 135.194 188.574 131.989 188.24C130.956 188.13 131.123 186.562 132.155 186.678C134.781 186.954 137.358 187.263 139.84 187.609L135.731 181.073C135.176 180.192 136.519 179.364 137.061 180.24L142.072 188.207C142.394 188.719 142.029 189.408 141.405 189.408Z"
            fill="#C9FF90" />
        <path
            d="M127.437 167.887L123.101 161.002C117.462 158.287 115.785 158.734 116.213 157.46C116.354 157.049 116.798 156.829 117.206 156.964C117.957 157.214 123.884 159.302 124.312 159.976L128.767 167.054C129.318 167.928 127.99 168.769 127.437 167.887ZM101.694 154.821C87.1146 152.26 85.4655 153.383 85.6162 151.865C85.662 151.436 86.0485 151.111 86.4802 151.166C92.2775 151.773 97.3425 152.463 101.964 153.277C103 153.455 102.694 155.021 101.694 154.821Z"
            fill="#C9FF90" />
        <path
            d="M86.7133 181.973C98.3079 171.208 108.316 164.878 118.207 162.049C119.205 161.765 119.635 163.27 118.636 163.557C108.993 166.314 99.1874 172.532 87.78 183.125C87.016 183.827 85.9521 182.683 86.7133 181.973Z"
            fill="#C9FF90" />
        <path
            d="M129.389 184.384C114.877 174.137 97.0122 165.226 74.7784 157.143L73.3779 156.821C72.3505 156.583 72.749 155.045 73.7335 155.295L75.2227 155.641C97.6832 163.801 115.667 172.774 130.296 183.103C131.145 183.701 130.233 184.984 129.389 184.384Z"
            fill="#C9FF90" />
        <path
            d="M225.744 258.273C225.814 262.161 220.127 265.76 212.969 266.305C205.721 266.857 199.742 264.073 199.705 260.093C199.669 256.124 205.56 252.533 212.776 252.074C219.902 251.619 225.675 254.394 225.744 258.273Z"
            fill="#559B36" />
        <path
            d="M184.58 47.5995C187.175 39.7012 187.541 31.2469 185.636 23.1542C184.565 18.5872 182.229 12.3787 177.179 8.72379C172.956 5.67062 166.081 4.84137 161.877 8.72238C158.518 11.8377 157.937 17.6123 160.61 21.3369C161.217 22.1772 159.934 23.0955 159.336 22.2504C156.171 17.8444 156.835 11.2592 160.814 7.57308C165.6 3.1332 173.367 4.02518 178.097 7.45324C188.969 15.3146 190.325 35.1469 186.072 48.089C185.745 49.0738 184.259 48.5868 184.58 47.5995Z"
            fill="#C9FF90" />
        <path
            d="M265.181 92.9274C263.052 89.4989 258.265 87.7455 253.534 88.6623C248.65 89.6094 244.479 92.9492 241.768 95.3793C240.979 96.0637 239.953 94.9026 240.72 94.209C243.57 91.6564 247.97 88.142 253.234 87.1244C258.594 86.0886 264.051 88.1328 266.517 92.1035C267.476 93.6604 267.964 95.3638 268.46 97.2699C268.567 97.6868 268.316 98.1156 267.896 98.2262C266.448 98.5705 267.053 95.9595 265.181 92.9274Z"
            fill="#C9FF90" />
        <path
            d="M88.6273 214.562C108.649 207.996 130.239 206.206 151.063 209.393C152.108 209.55 151.823 211.131 150.825 210.943C130.251 207.794 108.91 209.565 89.1181 216.051C88.1344 216.379 87.6415 214.886 88.6273 214.562Z"
            fill="#C9FF90" />
        <path
            d="M99.9849 227.012C112.122 223.725 124.649 221.647 137.215 220.838C138.208 220.701 138.389 222.332 137.316 222.401C124.854 223.206 112.432 225.269 100.396 228.526C99.3962 228.799 98.9815 227.286 99.9849 227.012Z"
            fill="#C9FF90" />
        <path
            d="M222.174 243.909C237.029 222.757 243.109 199.503 240.767 172.817C240.682 171.812 242.238 171.603 242.33 172.683C244.704 199.749 238.533 223.343 223.461 244.811C222.866 245.655 221.576 244.766 222.174 243.909Z"
            fill="#C9FF90" />
        <path
            d="M236.87 158.351L177.467 99.8801C176.724 99.1442 177.844 98.038 178.571 98.7647L237.973 157.236C238.715 157.97 237.59 159.072 236.87 158.351Z"
            fill="#C9FF90" />
        <path
            d="M215.959 158.834C208.164 150.992 199.914 143.359 191.451 136.15C190.655 135.472 191.684 134.288 192.469 134.955C200.966 142.192 209.245 149.856 217.074 157.731C217.805 158.47 216.684 159.574 215.959 158.834Z"
            fill="#C9FF90" />
        <path
            d="M147.88 141.05C145.275 128.275 141.007 115.89 135.191 104.237C134.724 103.304 136.139 102.619 136.594 103.538C142.471 115.314 146.786 127.828 149.418 140.737C149.625 141.758 148.089 142.061 147.88 141.05Z"
            fill="#C9FF90" />
        <path
            d="M67.4755 262.372C52.9635 239.467 38.1023 210.566 22.0363 174.01L21.5673 172.842C21.1843 171.877 22.6461 171.301 23.0256 172.266C27.3569 181.457 45.1249 224.159 68.7986 261.532C69.3598 262.409 68.0226 263.249 67.4755 262.372Z"
            fill="#C9FF90" />
        <path
            d="M84.764 60.0728C67.0354 51.0681 53.7001 40.6191 47.393 27.8485C46.6712 26.5937 45.322 26.0283 44.0046 26.562L13.4118 39.0185C12.188 39.615 11.6549 40.8698 11.9366 42.2506C16.2981 55.9 14.0702 72.749 7.60671 91.3874C7.04198 93.1442 7.51236 95.3095 8.98686 96.4707L68.3529 147.678C69.4147 148.563 70.3295 147.969 70.6435 147.93L47.3303 90.6663C43.5652 90.6036 40.0507 88.501 38.6389 84.9556C36.6623 80.1547 39.3606 74.601 44.5066 72.4991C54.0022 68.6537 62.3309 78.8668 55.7393 86.8695L79.1779 144.416L79.3659 144.353C80.1193 144.071 80.5897 143.444 80.6531 142.69L87.2736 64.5287C87.4306 62.6148 86.4265 60.9206 84.764 60.0728ZM55.959 68.4192C50.7729 63.2331 42.4963 64.0943 38.3255 69.486C37.62 70.3324 36.4729 69.2818 37.1017 68.5135C42.0745 62.1966 51.4186 61.6508 57.0582 67.2897C57.8004 68.0319 56.6906 69.1508 55.959 68.4192ZM77.7351 100.393C77.7351 101.383 76.1662 101.424 76.1662 100.33L77.8287 63.6809C77.8991 62.6965 79.475 62.662 79.3976 63.7436L77.7351 100.393Z"
            fill="#FCA8D7" />
        <path
            d="M6.85659 91.1275C13.8186 71.0816 15.2403 55.1726 11.2048 42.4956C10.8886 41.5021 12.3884 41.0394 12.7004 42.0175C16.8401 55.031 15.4149 71.2625 8.34025 91.6422C8.00014 92.6154 6.51789 92.114 6.85659 91.1275Z"
            fill="#02403A" />
        <path
            d="M67.8544 148.28C67.0425 147.637 68.0107 146.411 68.8289 147.049C69.0282 147.208 69.3007 147.343 69.5922 147.364L46.8036 91.4238C42.8019 91.1879 39.3452 88.8036 37.9052 85.2371C35.8061 80.1108 38.6284 74.0678 44.1961 71.7701C54.3803 67.6416 63.1569 78.5321 56.6273 87.0024L79.575 143.329C79.7314 143.151 79.8447 142.905 79.8722 142.627C79.9152 142.198 80.2524 141.854 80.7299 141.922C82.0227 142.05 81.4474 144.401 79.6603 145.093L79.323 145.173C78.0773 145.416 79.7863 147.243 54.9993 87.1679C54.8887 86.8982 54.938 86.5891 55.1246 86.368C61.1606 79.1468 53.6473 69.6414 44.789 73.2228C40.024 75.1902 37.5848 80.3164 39.3564 84.6463C40.6218 87.7812 43.7595 89.8338 47.3479 89.8739C47.6634 89.8768 47.9458 90.0704 48.0648 90.3612L71.3864 147.615C71.5554 148.03 71.3463 148.508 70.9118 148.658L70.6668 148.74C69.7683 149.153 68.6606 148.917 67.8544 148.28Z"
            fill="#02403A" />
        <path
            d="M6.23672 31.8493L0.255612 17.1564C-0.46474 15.3855 0.390106 13.3568 2.15824 12.6336L32.5581 0.257359C34.3417 -0.466514 36.3598 0.38974 37.0809 2.15999L43.062 16.8529C43.7823 18.6274 42.9275 20.6525 41.1558 21.3729L10.7595 33.752C9.00546 34.4667 6.96411 33.6294 6.23672 31.8493ZM33.1524 1.71003L2.75255 14.0863C1.78152 14.4813 1.31537 15.5939 1.70758 16.5649L7.68869 31.2543C8.08372 32.2289 9.18995 32.6887 10.1673 32.2993L40.5643 19.9202C41.5354 19.5252 42.0043 18.4154 41.6093 17.4444L35.6282 2.755C35.236 1.7896 34.1298 1.31148 33.1524 1.71003Z"
            fill="#559B36" />
        <path
            d="M31.9886 23.6877L25.7561 9.74544C25.3357 8.79412 26.768 8.16179 27.1904 9.10818L33.4229 23.0505C33.844 24.0053 32.4118 24.632 31.9886 23.6877Z"
            fill="#559B36" />
        <path
            d="M16.6182 24.5326L9.73291 11.0684C9.25972 10.1368 10.6617 9.43688 11.13 10.3516L18.0152 23.8151C18.4898 24.7495 17.0871 25.4494 16.6182 24.5326Z"
            fill="#559B36" />
        <path
            d="M61.6884 46.5681C54.6497 40.9024 49.2199 34.2686 45.5492 26.8559C45.0844 25.9194 46.5061 25.2356 46.9526 26.1574C50.5226 33.3672 55.8108 39.8237 62.675 45.3485C63.4777 45.9907 62.5053 47.2145 61.6884 46.5681Z"
            fill="#02403A" />
        <path
            d="M27.4939 32.894L45.8731 25.3039C46.842 24.9159 47.4285 26.3594 46.4737 26.7565L28.0945 34.3466C27.1305 34.7381 26.5362 33.2918 27.4939 32.894Z"
            fill="#02403A" />
    </g>
    <defs>
        <clipPath id="clip0_700_3795">
            <rect width="295" height="302.787" fill="white" />
        </clipPath>
    </defs>
</svg>
    