<svg width="279" height="226" viewBox="0 0 279 226" fill="none" xmlns="http://www.w3.org/2000/svg">
    <g clip-path="url(#clip0_738_102)">
        <path
            d="M234.596 65.1523C233.995 64.9782 233 64.6106 232.558 64.1484C233.237 64.4736 233.946 64.8271 234.596 65.1523Z"
            fill="#FAAAD5" />
        <path
            d="M278.291 57.982C277.469 48.7455 273.247 42.5564 266.595 36.6762C264.709 35.0227 247.797 22.7652 240.513 17.8201C236.492 15.0756 232.838 12.3015 228.222 10.7674C217.591 7.27275 212.052 10.2385 205.595 18.9413C200.968 24.9894 187.448 45.3285 189.877 52.6409C190.928 55.8555 197.19 58.9737 202.197 56.5652C207.128 54.144 211.074 49.3871 214.176 44.7618C215.877 42.2204 217.772 42.6056 219.925 44.6437C224.975 49.0768 227.269 56.9215 229.95 61.2864C230.226 61.4051 238.288 65.3538 238.531 65.4766C241.452 65.4766 247.495 64.5476 253.568 70.0209C259.255 75.136 262.34 85.1005 267.983 83.654C270.542 82.9753 272.969 80.2194 274.185 78.0174C274.242 77.9581 274.27 77.8703 274.327 77.7813C275.375 75.8633 275.97 73.7389 276.536 71.6434C277.748 67.0991 278.751 63.5896 278.291 57.982ZM196.362 51.0184C193.338 53.5395 190.16 51.4616 190.16 47.5069C190.16 47.123 190.472 46.7985 190.869 46.7985C190.869 46.7985 190.869 46.7985 190.897 46.7985C191.266 46.7985 191.577 47.123 191.577 47.5359C191.577 48.9385 192.277 50.1063 192.766 50.3984C193.281 50.7809 194.331 50.8274 195.457 49.8668C196.079 49.3351 196.59 48.6274 197.071 47.9488C199.02 45.2623 200.75 42.6083 198.118 40.6896C196.432 39.3559 194.469 39.6514 194.833 38.4175C194.975 38.0336 195.371 37.8272 195.74 37.9452C196.787 38.2994 197.949 38.7123 198.968 39.48C200.157 40.3948 200.865 41.6928 200.894 42.9618C200.894 45.628 197.621 49.9086 196.362 51.0184Z"
            fill="#FAAAD5" />
        <path
            d="M231.339 61.965C231.104 61.8422 229.556 61.0535 229.244 60.9321C226.581 55.562 223.382 50.486 219.672 45.7939C219.417 45.4984 219.473 45.0268 219.756 44.761C219.813 44.732 219.87 44.6726 219.926 44.6429C220.209 44.5249 220.549 44.6132 220.776 44.8494C224.939 50.1318 228.479 55.8568 231.339 61.965Z"
            fill="#559B36" />
        <path
            d="M233.888 67.9256C234.076 68.4343 233.713 68.9585 233.237 68.9585C232.365 68.9585 232.722 68.2656 230.235 62.998C230.915 63.3516 231.594 63.6767 232.274 64.0006C232.841 65.2992 233.379 66.5979 233.888 67.9256Z"
            fill="#559B36" />
        <path
            d="M68.586 184.633L67.17 206.765L60.4863 225.975L10.7002 191.656C9.62415 190.889 8.94432 189.62 8.94432 188.263C9.16639 181.316 8.38815 179.619 9.79378 177.847C9.70378 178.691 8.15766 177.031 47.5443 203.519C48.2287 204.055 49.1202 202.895 48.309 202.28C8.48657 175.73 10.8459 177.168 10.5021 177.168C11.7484 176.24 9.98478 177.135 49.3287 165.836L62.2992 170.351L68.586 184.633Z"
            fill="#559B36" />
        <path
            d="M219.416 169.849C217.589 165.813 224.853 181.862 176.879 75.863L168.921 82.0015C167.279 83.2705 164.957 82.8866 163.739 81.1751C162.526 79.4655 162.834 77.0962 164.503 75.8043L173.65 68.7226C173.511 68.4143 163.185 45.5919 163.823 47.0039C162.917 45.0569 160.934 43.935 158.896 44.2008L4.15706 64.975C1.06999 65.3878 -0.79921 68.6929 0.333837 71.7031L37.6311 169.171L58.1633 222.847C58.645 224.087 59.5507 225.031 60.6268 225.532C63.6977 227.045 55.6757 227.937 216.498 176.695C219.274 175.81 220.634 172.564 219.416 169.849ZM171.187 92.4179C171.187 91.6212 171.81 90.9722 172.575 90.9722H177.503C178.268 90.9722 178.89 91.6212 178.89 92.4179V97.5526C178.89 98.3493 178.268 98.9687 177.503 98.9687H172.575C171.81 98.9687 171.187 98.3493 171.187 97.5526V92.4179ZM168.95 182.361C84.8183 210.596 88.6422 209.391 88.3521 209.391C87.5253 209.391 87.3823 208.243 88.1255 207.945L168.497 180.974C169.462 180.686 169.795 182.09 168.95 182.361ZM186.877 151.465L76.6844 183.481C75.1266 183.954 73.4561 183.128 72.8326 181.563C66.744 166.573 40.4068 98.0829 33.2699 80.4073C32.4483 78.4306 33.6661 76.2171 35.7056 75.8926L144.652 57.8042C146.039 57.5978 147.399 58.3352 148.022 59.6629L188.859 146.891C189.709 148.721 188.774 150.904 186.877 151.465Z"
            fill="#C9FF90" />
        <path
            d="M90.6334 144.104C95.1448 137.042 120.061 96.1841 125.416 84.1121C125.944 82.9072 127.611 83.1366 127.848 84.4218C129.877 95.245 142.404 125.907 143.776 130.695C143.992 131.447 143.537 132.173 142.838 132.359L92.0662 146.151C90.8697 146.455 89.9794 145.122 90.6334 144.104ZM126.523 85.2064C120.797 97.7506 96.8379 137.077 91.9924 144.699L142.394 130.919C140.196 124.517 128.722 95.9574 126.523 85.2064Z"
            fill="#559B36" />
        <path
            d="M114.519 99.44C109.902 87.4597 96.4507 80.289 84.443 83.5353C72.4353 86.752 66.5169 99.1161 71.1326 111.096C75.8053 123.195 89.2575 130.336 101.265 127.12C113.244 123.903 119.191 111.509 114.519 99.44ZM89.5119 90.2925C83.5514 91.7255 78.9778 96.96 78.4385 103.571C78.3679 104.531 76.9539 104.457 77.0225 103.453C77.6136 96.2496 82.6061 90.3823 89.1998 88.8758C90.0357 88.6275 90.4831 90.0591 89.5119 90.2925Z"
            fill="#FBD072" />
        <path
            d="M70.462 111.384C68.1396 105.358 68.3041 99.0587 70.9321 93.6406C79.5937 75.7755 107.529 79.2931 115.19 99.147C115.337 99.5336 115.159 99.9735 114.786 100.13C114.417 100.278 113.996 100.095 113.842 99.7083C106.576 80.8663 80.2658 77.7515 72.2263 94.32C69.7906 99.3454 69.641 105.206 71.81 110.824C72.1635 111.752 70.8265 112.311 70.462 111.384Z"
            fill="#559B36" />
        <path
            d="M175.578 90.023C181.769 82.094 190.318 77.3722 202.484 75.1709C203.421 74.9745 203.684 76.4871 202.734 76.6584C190.933 78.7977 182.661 83.3455 176.705 90.979C176.106 91.738 174.968 90.8083 175.578 90.023Z"
            fill="#559B36" />
        <path
            d="M76.659 146.478C72.4933 136.986 73.0087 121.358 80.4143 113.225C84.3534 108.902 90.1876 106.411 95.8315 106.591C103.616 106.818 109.717 111.442 115.616 115.916C118.454 118.067 121.39 120.292 124.435 121.948C131.676 125.878 139.753 126.967 147.156 125.02C158.581 122.014 164.498 109.026 169.883 99.1222L170.427 98.2782C170.958 97.4478 172.164 98.2944 171.628 99.1222L171.115 99.9163C165.326 110.604 159.408 123.359 147.513 126.483C139.757 128.525 131.323 127.392 123.767 123.287C120.624 121.582 117.644 119.321 114.764 117.138C109.043 112.8 103.128 108.315 95.7926 108.102C90.4032 107.928 85.1271 110.25 81.4683 114.264C74.4622 121.954 74.009 136.806 77.9792 145.853C78.3793 146.758 77.0559 147.392 76.659 146.478Z"
            fill="#559B36" />
        <path
            d="M122.825 117.042V122.169C122.825 122.966 122.205 123.613 121.439 123.613H116.519C115.754 123.613 115.133 122.967 115.133 122.169V117.042C115.133 116.245 115.753 115.598 116.519 115.598H121.439C122.205 115.598 122.825 116.244 122.825 117.042Z"
            fill="#C9FF90" />
        <path
            d="M81.1914 144.317V149.444C81.1914 150.241 80.5712 150.888 79.8052 150.888H74.8852C74.1199 150.888 73.499 150.242 73.499 149.444V144.317C73.499 143.52 74.1193 142.873 74.8852 142.873H79.8052C80.5705 142.874 81.1914 143.52 81.1914 144.317Z"
            fill="#C9FF90" />
        <path
            d="M72.1638 181.87C69.1622 174.485 61.3882 154.465 53.1552 133.269C44.8289 111.837 36.2197 89.673 32.592 80.7084C32.221 79.7942 33.5515 79.1951 33.929 80.1241C37.5599 89.0975 46.1717 111.265 54.498 132.703C62.7278 153.894 70.5018 173.907 73.5008 181.281C73.8731 182.198 72.5471 182.793 72.1638 181.87Z"
            fill="#559B36" />
        <path
            d="M188.193 147.213L147.37 59.9826C146.951 59.0867 148.256 58.4188 148.673 59.3215L189.496 146.553C189.919 147.456 188.61 148.11 188.193 147.213Z"
            fill="#559B36" />
        <path
            d="M19.8171 103.15L34.1582 99.4171C35.04 99.1351 35.4732 100.631 34.5091 100.881L20.168 104.614C19.2719 104.88 18.8634 103.397 19.8171 103.15Z"
            fill="#559B36" />
        <path
            d="M24.598 114.696L38.9392 110.96C39.8158 110.673 40.2574 112.174 39.2901 112.424L24.949 116.16C24.0399 116.431 23.656 114.94 24.598 114.696Z"
            fill="#559B36" />
        <path
            d="M45.7451 130.002C46.0093 133.478 43.6363 136.31 40.4437 136.31C37.2511 136.31 34.4483 133.478 34.1841 130.002C33.92 126.526 36.2948 123.715 39.4868 123.715C42.6787 123.715 45.4816 126.526 45.7451 130.002Z"
            fill="#C9FF90" />
        <path
            d="M45.7431 130.755C45.3663 130.755 45.049 130.455 45.0212 130.059C44.7862 126.978 42.3025 124.47 39.4848 124.47C38.5266 124.47 38.5253 122.96 39.4848 122.96C43.0419 122.96 46.1736 126.091 46.4657 129.942C46.4967 130.358 46.1995 130.721 45.8001 130.753C45.78 130.755 45.7599 130.755 45.7431 130.755Z"
            fill="#559B36" />
        <path
            d="M40.4433 137.066C36.8861 137.066 33.7544 133.923 33.4624 130.06C33.3931 129.131 34.8246 128.844 34.9069 129.942C35.1419 133.037 37.6255 135.554 40.4433 135.554C41.4015 135.555 41.4021 137.066 40.4433 137.066Z"
            fill="#559B36" />
        <path
            d="M38.9022 148.44L53.2434 144.704C54.1394 144.433 54.5486 145.921 53.5943 146.168L39.2538 149.904C38.3448 150.174 37.9608 148.683 38.9022 148.44Z"
            fill="#559B36" />
        <path
            d="M43.4201 160.564C42.572 160.564 42.4179 159.29 43.2447 159.076L57.5858 155.34C58.4638 155.053 58.904 156.554 57.9367 156.804C44.0967 160.403 43.7102 160.564 43.4201 160.564Z"
            fill="#559B36" />
        <path
            d="M51.5135 204.051L209.737 152.959C210.706 152.7 211.049 154.12 210.167 154.405L51.9441 205.497C50.9897 205.775 50.6239 204.339 51.5135 204.051Z"
            fill="#559B36" />
        <path
            d="M139.412 112.16H139.383L139.355 112.19L125.45 117.531L121.145 119.213L119.021 120.009C118.653 120.157 118.341 119.715 118.568 119.419L119.871 117.531C120.079 117.227 127.658 106.208 127.177 106.907C127.285 107.243 128 109.098 128.791 110.832C129.144 111.66 130.49 111.139 130.066 110.183C129.906 109.832 128.38 106.396 128.451 106.022C128.48 105.757 128.394 105.521 128.225 105.373L131.595 100.504C131.595 100.475 131.623 100.475 131.623 100.475C131.765 100.268 132.077 100.268 132.246 100.504L139.553 111.57C139.695 111.747 139.638 112.042 139.412 112.16Z"
            fill="#FBD072" />
        <path
            d="M205.028 62.3506C205.254 62.3506 205.481 62.3506 205.736 62.41L199.478 67.1021C199.477 64.2004 202.63 62.3506 205.028 62.3506Z"
            fill="#559B36" />
        <path
            d="M230.093 17.9687C229.719 18.2804 131.808 99.9974 131.625 100.475C131.625 100.475 131.597 100.475 131.597 100.505C130.096 103.721 136.014 112.78 139.385 112.16H139.413C139.64 112.131 139.838 112.042 140.065 111.895C140.359 111.673 198.504 67.8488 198.206 68.0748C197.518 64.9688 199.639 62.4942 202.538 61.3466C204.181 60.6976 205.852 60.786 207.353 61.1989C256.874 23.8738 239.794 36.7473 243.489 33.9624C255.042 23.4569 241.676 7.46321 230.093 17.9687ZM149.353 101.626C147.088 99.0002 145.275 95.9603 143.972 92.6849C142.519 89.1498 145.122 89.6902 144.963 90.767C144.906 91.1798 145.077 91.6521 145.275 92.1243C146.521 95.2526 148.249 98.1144 150.429 100.652C151.045 101.436 149.941 102.362 149.353 101.626ZM153.856 95.4591C151.732 92.8914 149.863 90.0883 148.305 87.1374C147.831 86.2907 149.049 85.5824 149.523 86.429C151.052 89.2915 152.893 92.0056 154.932 94.4849C155.55 95.2715 154.443 96.1917 153.856 95.4591ZM188.236 67.0709C187.945 67.2956 167.628 83.0032 168.922 82.0027C167.279 83.2717 164.957 82.8878 163.739 81.1763C162.526 79.4668 162.834 77.0974 164.504 75.8055L173.651 68.7238L183.818 60.8744C185.46 59.6054 187.783 59.9596 189.001 61.6711C190.219 63.3827 189.879 65.8026 188.236 67.0709Z"
            fill="#559B36" />
        <path
            d="M121.134 119.209L119.018 120.016C118.66 120.154 118.338 119.721 118.565 119.406L119.868 117.517C120.265 118.107 120.68 118.678 121.134 119.209Z"
            fill="#559B36" />
        <path
            d="M210.75 64.7686C210.693 67.8673 210.014 70.582 208.598 73.0903C208.428 73.3851 208.116 73.5619 207.777 73.4742C197.73 71.4665 197.596 64.774 203.047 62.7333C205.356 61.7483 208.163 62.8419 210.325 64.061C210.58 64.2087 210.75 64.5035 210.75 64.7686Z"
            fill="#FAAAD5" />
        <path
            d="M267.418 47.5655C264.076 46.3848 260.961 49.9847 257.534 50.8112C251.143 52.2711 245.703 44.2145 241.703 45.3817C240.486 45.7062 239.608 46.739 238.814 47.7125C235.156 52.0835 232.848 54.3469 233.037 56.831L235.444 63.972C239.481 65.9136 239.814 66.1396 241.958 67.2184C242.861 67.6535 242.056 69.0183 241.335 68.5164C232.606 64.0611 232.648 64.335 232.357 64.0307C232.3 64.001 232.244 63.9713 232.216 63.9126C232.244 63.9417 232.244 63.9713 232.272 64.001C231.981 63.862 222.093 59.0195 215.96 56.211C215.528 56.0376 215.368 55.4108 215.762 55.0013C215.242 54.7308 210.655 53.2189 207.662 52.6705C195.837 50.5022 191.037 57.339 192.879 64.592C195.953 77.4041 212.836 82.675 225.079 87.1958C242.783 93.8376 246.598 95.6652 254.418 94.7794C258.355 94.3665 262.263 93.1859 265.406 90.6776C270.65 86.5562 276.107 77.0485 276.479 67.7493C276.895 56.8343 270.645 48.5929 267.418 47.5655ZM209.816 73.8285C209.39 74.5881 208.526 75.1299 207.522 74.9201C196.317 72.8509 195.646 64.0732 202.537 61.3463C205.336 60.2406 208.368 61.237 211.005 62.7624C211.713 63.1463 212.166 63.9423 212.166 64.7984C212.109 68.1332 211.345 71.0841 209.816 73.8285Z"
            fill="#FAAAD5" />
        <path
            d="M47.7593 73.097L135.427 58.3252C136.405 58.1902 136.583 59.6589 135.659 59.8181L47.9918 74.59C47.0225 74.7344 46.8289 73.2576 47.7593 73.097Z"
            fill="#559B36" />
        <path
            d="M119.508 162.044L178.753 145.062C179.699 144.805 180.049 146.254 179.138 146.52L119.893 163.502C118.955 163.757 118.592 162.311 119.508 162.044Z"
            fill="#559B36" />
        <path
            d="M158.98 29.145C158.476 23.9219 157.955 18.5214 156.27 13.523C154.423 8.03754 151.274 3.73806 147.403 1.42135C146.568 0.926841 147.294 -0.388031 148.122 0.111202C152.296 2.60737 155.678 7.19356 157.641 13.0211C159.38 18.1909 159.912 23.6824 160.425 28.9912C160.52 29.9937 159.082 30.1434 158.98 29.145Z"
            fill="#559B36" />
        <path
            d="M170.455 22.1916L172.123 7.42849C172.231 6.44352 173.677 6.60948 173.561 7.60524L171.893 22.3684C171.782 23.3736 170.34 23.182 170.455 22.1916Z"
            fill="#559B36" />
        <path
            d="M178.235 27.6885C176.873 21.4414 177.266 14.6808 179.351 8.64617C180.214 6.15 181.582 4.77441 183.202 4.77441C184.16 4.77441 184.162 6.28493 183.202 6.28493C181.902 6.28493 181.087 8.08487 180.716 9.15889C178.725 14.9223 178.346 21.3847 179.651 27.3512C179.863 28.3342 178.445 28.6566 178.235 27.6885Z"
            fill="#559B36" />
        <path
            d="M227.431 145.355C221.901 139.102 224.154 128.637 230.283 126.074C229.585 117.331 236.476 110.748 244.729 109.393C245.705 109.253 245.883 110.733 244.955 110.886C237.488 112.111 231.257 117.921 231.699 125.658C236.988 124.736 239.886 130.391 237.252 133.64C234.722 136.773 231.273 131.654 230.492 127.627C225.49 130.102 223.782 139.003 228.495 144.329C229.146 145.063 228.083 146.089 227.431 145.355ZM231.874 127.16C232.217 129.066 233.004 130.834 234.216 132.232C234.647 132.731 235.258 133.197 235.694 133.041C236.801 132.617 237.339 129.877 235.768 128.272C234.828 127.308 233.336 126.906 231.874 127.16Z"
            fill="#559B36" />
        <path
            d="M77.805 220.008L181.079 186.736C182.048 186.473 182.392 187.896 181.51 188.182L78.2356 221.453C77.2683 221.725 76.9206 220.294 77.805 220.008Z"
            fill="#559B36" />
        <path
            d="M19.724 61.1211L153.632 42.8552C154.584 42.7379 154.77 44.22 153.819 44.3543L19.9105 62.6201C18.9212 62.7139 18.8014 61.2513 19.724 61.1211Z"
            fill="#559B36" />
    </g>
    <defs>
        <clipPath id="clip0_738_102">
            <rect width="278.406" height="226" fill="white" />
        </clipPath>
    </defs>
</svg>
    