<svg width="259" height="262" viewBox="0 0 259 262" fill="none" xmlns="http://www.w3.org/2000/svg">
    <g clip-path="url(#clip0_700_3612)">
        <path
            d="M145.096 120.486C144.933 121.186 145.165 122.447 145.32 123.15C145.403 122.223 145.32 121.294 145.096 120.486Z"
            fill="#ADAAFA" />
        <path
            d="M47.5 132.854C47.7768 132.854 48 132.354 48 131.738V31.9688C48 31.3526 47.7768 30.8535 47.5 30.8535C47.2232 30.8535 47 31.3526 47 31.9688V131.738C47 132.354 47.2232 132.854 47.5 132.854Z"
            fill="#C9FF90" />
        <path
            d="M47.5929 33.4141H197.304C197.689 33.4141 198 33.0792 198 32.6656V12.2849C198 5.98228 193.223 0.853516 187.348 0.853516H57.549C51.6742 0.853516 46.8967 5.98228 46.8967 12.2849V32.6656C46.8967 33.0785 47.2076 33.4141 47.5929 33.4141ZM196.608 31.9165H48.2891V12.2849C48.2891 6.80681 52.4449 2.35052 57.549 2.35052H187.348C192.452 2.35052 196.608 6.80616 196.608 12.2849V31.9165Z"
            fill="#C9FF90" />
        <path
            d="M91.6968 86.3505H163.716C164.101 86.3505 164.412 86.0156 164.412 85.602C164.412 85.1884 164.101 84.8535 163.716 84.8535H91.6968C91.3115 84.8535 91.0006 85.1884 91.0006 85.602C91.0006 86.0156 91.3115 86.3505 91.6968 86.3505Z"
            fill="#C9FF90" />
        <path
            d="M146.296 71.1064H182.63C183.015 71.1064 183.326 70.7715 183.326 70.3579C183.326 69.9443 183.015 69.6094 182.63 69.6094H146.296C145.911 69.6094 145.6 69.9443 145.6 70.3579C145.6 70.7715 145.911 71.1064 146.296 71.1064Z"
            fill="#02403A" />
        <path
            d="M179.645 228.462C179.673 228.701 179.701 228.941 179.756 229.181C181.68 231.545 183.269 234.148 184.106 237.111C184.106 237.141 184.106 237.141 184.106 237.171C184.33 237.41 184.58 237.65 184.831 237.92C185.138 238.249 185.556 238.338 185.863 238.189C188.929 236.693 191.328 234.448 193.14 231.365C193.419 230.916 193.391 230.199 193.112 229.689C191.606 227.056 189.738 224.632 187.926 223.016C186.002 221.28 183.13 220.412 181.317 222.088C180.063 223.255 179.45 225.649 179.645 228.462Z"
            fill="#FAAAD5" />
        <path
            d="M167.068 214.189C169.195 218.753 174.048 222.66 178.194 227.387C178.194 220.815 182.264 218.294 186.671 220.444C189.586 221.785 192.632 226.002 194.283 228.912C194.869 229.93 194.869 231.217 194.339 232.144C192.443 235.347 189.989 237.711 186.838 239.357C186.532 239.521 186.223 239.746 185.555 239.746C185.221 239.746 184.858 239.656 184.551 239.507C185.159 244.664 182.141 253.017 199.581 266.979C210.053 275.467 222.837 282.451 235.886 280.895C242.941 280.028 250.553 276.197 254.931 269.972C259.56 263.388 259.503 254.38 258.333 246.599C255.042 224.903 241.77 207.007 227.019 192.462C225.178 190.636 223.31 188.871 221.442 187.165C218.431 184.441 214.583 181.628 211.543 183.693C209.87 184.83 209.145 187.165 209.284 189.529C209.568 194.564 212.834 198.561 215.474 202.427C211.151 199.371 205.969 197.683 201.811 200.961C215.195 219.156 215.251 219.426 215.279 219.546C215.418 219.934 215.251 220.444 214.889 220.563C214.514 220.663 214.134 220.537 214.024 220.144C213.69 219.575 207.889 211.675 200.751 201.979C199.831 203.026 199.218 204.403 199.023 206.019C196.97 203.705 193.594 203.065 190.992 203.924C186.844 205.297 186.763 212.412 189.095 216.344C186.777 213.233 184.714 210.535 180.814 207.186C178.695 205.361 176.38 203.775 173.926 203.116C167.766 201.44 163.89 207.336 167.068 214.189Z"
            fill="#FAAAD5" />
        <path
            d="M200.753 201.978C199.833 203.025 199.22 204.402 199.025 206.018C198.467 205.389 197.825 204.88 197.1 204.491V197.039C198.355 198.715 199.554 200.391 200.753 201.978ZM181.318 222.088C183.13 220.412 186.002 221.28 187.927 223.016C189.739 224.632 191.607 227.056 193.113 229.689C193.392 230.198 193.42 230.916 193.141 231.365C191.329 234.448 188.93 236.693 185.863 238.189C185.556 238.338 185.138 238.249 184.832 237.919C184.581 237.65 184.33 237.411 184.107 237.171C181.736 234.599 180.06 232.021 179.646 228.462C179.45 225.65 180.063 223.255 181.318 222.088ZM200.753 201.978C199.833 203.025 199.22 204.402 199.025 206.018C198.467 205.389 197.825 204.88 197.1 204.491V197.039C198.355 198.715 199.554 200.391 200.753 201.978ZM200.753 201.978C199.833 203.025 199.22 204.402 199.025 206.018C198.467 205.389 197.825 204.88 197.1 204.491V197.039C198.355 198.715 199.554 200.391 200.753 201.978ZM200.753 201.978C199.833 203.025 199.22 204.402 199.025 206.018C198.467 205.389 197.825 204.88 197.1 204.491V197.039C198.355 198.715 199.554 200.391 200.753 201.978ZM105.027 146.254H210.094L227.02 163.612V233.55C227.02 236.753 224.594 239.356 221.582 239.356H186.838C189.99 237.71 192.443 235.346 194.339 232.144C194.87 231.216 194.87 229.929 194.284 228.912C192.636 226.006 189.59 221.785 186.672 220.443C182.173 218.249 177.735 220.869 178.251 228.613C178.529 232.114 180.314 235.436 183.883 239.027C183.994 239.147 184.134 239.237 184.273 239.356H106.171C103.187 239.356 100.761 236.753 100.761 233.55V150.833C100.761 148.289 102.657 146.254 105.027 146.254ZM124.853 162.085C120.782 162.085 117.52 165.587 117.52 169.926C117.52 174.266 120.782 177.797 124.853 177.797C128.868 177.797 132.159 174.265 132.159 169.926C132.159 165.587 128.868 162.085 124.853 162.085ZM135.922 184.291C134.155 183.85 132.187 184.559 131.015 186.446C130.792 186.745 130.597 187.014 130.346 187.254C130.039 187.583 129.593 187.703 129.37 187.523C129.169 187.415 128.36 185.592 126.665 184.74C125.634 184.202 124.463 184.142 123.459 184.561C122.565 184.944 121.947 185.592 121.117 186.356C120.866 186.566 119.974 187.194 119.304 186.895C118.394 186.519 117.848 183.514 114.704 183.064C112.108 182.76 110.116 184.427 108.262 186.416C107.617 187.108 108.564 188.217 109.238 187.494C109.935 186.745 110.772 185.877 111.72 185.279C113.776 183.992 115.725 184.466 116.823 185.997C117.41 186.945 117.833 187.875 118.775 188.272C119.695 188.691 120.866 188.421 121.953 187.523C123.05 186.641 124.08 185.056 126.08 186.087C127.573 186.853 127.844 188.247 128.59 188.78C129.368 189.388 130.57 189.089 131.267 188.39C131.994 187.675 132.017 187.346 132.606 186.714C133.359 185.877 134.557 185.487 135.59 185.757C136.455 186.024 136.815 184.586 135.922 184.291ZM219.603 161.367C219.38 161.038 218.961 160.948 218.627 161.157C217.3 162.115 213.547 164.254 212.046 163.97C210.909 163.775 210.052 162.254 208.812 161.367C206.804 159.93 203.848 160.32 201.952 162.294C201.701 162.534 201.478 162.803 201.227 163.072C200.586 163.85 199.972 164.569 199.247 164.599C198.661 164.658 198.159 164.18 197.88 163.941C196.931 162.92 195.132 159.449 192.081 159.751C191.328 159.841 190.575 160.17 189.822 160.739C188.261 161.936 187.313 163.762 186.476 165.377C186.281 165.737 186.421 166.186 186.755 166.395C187.091 166.576 187.499 166.49 187.703 166.096C188.456 164.63 189.321 162.954 190.631 161.966C192.073 160.883 193.606 160.784 195.566 163.253C195.776 163.546 196.773 164.993 197.1 165.168C197.74 165.741 198.446 166.096 199.275 166.096C200.903 166.023 201.775 164.58 202.9 163.373C204.322 161.906 206.58 161.577 208.058 162.625C209.285 163.536 210.109 165.151 211.794 165.468C213.771 165.847 217.731 163.604 219.407 162.416C219.714 162.175 219.798 161.726 219.603 161.367ZM146.77 220.442C147.06 220.234 144.514 223.604 180.314 174.295C181.236 175.537 213.257 218.836 214.025 220.143C214.135 220.536 214.516 220.662 214.89 220.562C215.253 220.442 215.419 219.933 215.28 219.544C215.117 218.844 189.249 183.973 180.871 172.619C180.562 172.221 180.066 172.22 179.756 172.619L161.854 197.309C161.854 197.249 161.826 197.189 161.771 197.129L150.171 181.059C149.86 180.659 149.364 180.661 149.056 181.059L121.785 218.557C121.563 218.886 121.618 219.366 121.925 219.605C122.198 219.898 122.649 219.809 122.901 219.485L149.614 182.735L160.684 198.057C160.795 198.207 160.935 198.297 161.102 198.327L145.877 219.305C145.654 219.634 145.71 220.113 146.017 220.383C146.045 220.413 146.073 220.413 146.101 220.442H146.77ZM200.753 201.978C199.833 203.025 199.22 204.402 199.025 206.018C198.467 205.389 197.825 204.88 197.1 204.491V197.039C198.355 198.715 199.554 200.391 200.753 201.978ZM200.753 201.978C199.833 203.025 199.22 204.402 199.025 206.018C198.467 205.389 197.825 204.88 197.1 204.491V197.039C198.355 198.715 199.554 200.391 200.753 201.978ZM200.753 201.978C199.833 203.025 199.22 204.402 199.025 206.018C198.467 205.389 197.825 204.88 197.1 204.491V197.039C198.355 198.715 199.554 200.391 200.753 201.978Z"
            fill="#C9FF90" />
        <path
            d="M105.729 222.233H172.843C173.228 222.233 173.539 221.898 173.539 221.485C173.539 221.071 173.228 220.736 172.843 220.736H105.729C105.344 220.736 105.033 221.071 105.033 221.485C105.033 221.898 105.344 222.233 105.729 222.233Z"
            fill="#C9FF90" />
        <path
            d="M209.599 161.166C209.553 162.511 210.557 163.629 211.812 163.629H227.035C222.92 159.403 209.22 145.334 210.1 146.237L209.599 161.166Z"
            fill="#01014F" />
        <path
            d="M179.645 228.462C180.06 232.021 181.732 234.595 184.106 237.171C184.33 237.41 184.58 237.65 184.831 237.92C185.138 238.249 185.556 238.338 185.863 238.189C188.929 236.693 191.328 234.448 193.14 231.365C193.419 230.916 193.391 230.199 193.112 229.689C191.606 227.056 189.738 224.632 187.926 223.016C186.002 221.28 183.13 220.412 181.317 222.088C180.063 223.255 179.45 225.649 179.645 228.462Z"
            fill="#FAAAD5" />
        <path
            d="M172.703 221.219C172.759 220.95 172.842 220.68 172.954 220.441C174.843 214.767 181.281 211.253 188.095 214.994C193.594 217.945 196.162 223.952 201.674 230.197C203.013 231.753 204.463 233.668 206.108 234.895C206.192 234.955 206.247 235.045 206.331 235.135C207.325 236.05 210.858 239.982 213.023 241.359C211.323 244.353 201.77 252.88 189.963 257.4C189.907 257.43 189.879 257.43 189.823 257.459C182.664 248.29 180.771 245.021 176.662 237.139C173.86 231.956 171.35 227.019 172.703 221.219ZM186.45 239.565C186.59 239.505 186.729 239.415 186.841 239.355C189.992 237.709 192.446 235.344 194.342 232.143C194.872 231.215 194.872 229.928 194.286 228.911C192.638 226.005 189.592 221.784 186.674 220.442C182.175 218.247 177.737 220.868 178.253 228.612C178.531 232.113 180.317 235.435 183.885 239.026C184.563 239.755 185.64 239.912 186.45 239.565Z"
            fill="#FAAAD5" />
        <path
            d="M214.614 242.086C210.95 240.038 203.409 231.428 200.372 227.487C200.125 227.169 199.686 227.126 199.391 227.388C199.094 227.652 199.054 228.122 199.298 228.442C201.749 231.618 209.775 241.067 213.971 243.413C214.784 243.872 215.433 242.543 214.614 242.086Z"
            fill="#02403A" />
        <path
            d="M175.525 16.7435C175.525 18.9444 177.188 20.7233 179.233 20.7233C181.284 20.7233 182.941 18.9444 182.941 16.7435C182.941 14.5484 181.283 12.7637 179.233 12.7637C177.188 12.763 175.525 14.5484 175.525 16.7435Z"
            fill="#FCA8D7" />
        <path
            d="M160.179 16.7435C160.179 18.9444 161.842 20.7233 163.888 20.7233C165.938 20.7233 167.596 18.9444 167.596 16.7435C167.596 14.5484 165.938 12.7637 163.888 12.7637C161.842 12.763 160.179 14.5484 160.179 16.7435Z"
            fill="#C9FF90" />
        <path
            d="M144.836 16.7435C144.836 18.9444 146.499 20.7233 148.544 20.7233C150.595 20.7233 152.252 18.9444 152.252 16.7435C152.252 14.5484 150.594 12.7637 148.544 12.7637C146.499 12.763 144.836 14.5484 144.836 16.7435Z"
            fill="#01B990" />
        <path
            d="M5.50948 212.147H9.32753C9.71288 212.147 10.0237 211.812 10.0237 211.398C10.0237 210.985 9.71288 210.65 9.32753 210.65H6.20566V200.534C6.20566 200.121 5.89482 199.786 5.50948 199.786C5.12413 199.786 4.81329 200.121 4.81329 200.534V211.398C4.81329 211.812 5.12413 212.147 5.50948 212.147ZM23.2697 212.147H37.2118C37.5972 212.147 37.908 211.812 37.908 211.398C37.908 210.985 37.5972 210.65 37.2118 210.65H23.2697C22.8843 210.65 22.5735 210.985 22.5735 211.398C22.5735 211.812 22.8843 212.147 23.2697 212.147ZM51.1539 212.147H65.0961C65.4814 212.147 65.7923 211.812 65.7923 211.398C65.7923 210.985 65.4814 210.65 65.0961 210.65H51.1539C50.7686 210.65 50.4577 210.985 50.4577 211.398C50.4577 211.812 50.7686 212.147 51.1539 212.147ZM71.3722 203.918C71.7575 203.918 72.0684 203.583 72.0684 203.169V188.206C72.0684 187.792 71.7575 187.457 71.3722 187.457C70.9868 187.457 70.676 187.792 70.676 188.206V203.169C70.676 203.583 70.9868 203.918 71.3722 203.918ZM5.50948 186.319C5.89482 186.319 6.20566 185.984 6.20566 185.571V170.607C6.20566 170.194 5.89482 169.859 5.50948 169.859C5.12413 169.859 4.81329 170.194 4.81329 170.607V185.571C4.81329 185.984 5.12413 186.319 5.50948 186.319ZM71.3722 173.991C71.7575 173.991 72.0684 173.656 72.0684 173.242V158.279C72.0684 157.865 71.7575 157.53 71.3722 157.53C70.9868 157.53 70.676 157.865 70.676 158.279V173.242C70.676 173.656 70.9868 173.991 71.3722 173.991ZM5.50948 156.392C5.89482 156.392 6.20566 156.057 6.20566 155.644V141.429H18.0592C18.4446 141.429 18.7554 141.094 18.7554 140.68C18.7554 140.267 18.4446 139.932 18.0592 139.932H5.50948C5.12413 139.932 4.81329 140.267 4.81329 140.68V155.644C4.81329 156.057 5.12413 156.392 5.50948 156.392ZM71.3722 144.064C71.7575 144.064 72.0684 143.729 72.0684 143.316V140.681C72.0684 140.267 71.7575 139.932 71.3722 139.932H59.8856C59.5003 139.932 59.1894 140.267 59.1894 140.681C59.1894 141.094 59.5003 141.429 59.8856 141.429H70.676V143.316C70.676 143.729 70.9868 144.064 71.3722 144.064ZM32.0014 141.429H45.9435C46.3288 141.429 46.6397 141.094 46.6397 140.681C46.6397 140.267 46.3288 139.932 45.9435 139.932H32.0014C31.616 139.932 31.3052 140.267 31.3052 140.681C31.3052 141.094 31.616 141.429 32.0014 141.429Z"
            fill="#C9FF90" />
        <path
            d="M19.5342 152H57.3453C59.269 152 60.8306 153.676 60.8306 155.741V196.321C60.8306 198.386 59.269 200.062 57.3453 200.062H19.5342C17.6106 200.062 16.049 198.386 16.049 196.321V155.741C16.049 153.676 17.6106 152 19.5342 152ZM27.5655 177.527C27.5655 178.575 28.3459 179.413 29.3218 179.413H35.317V185.847C35.317 186.895 36.0981 187.733 37.074 187.733H39.8343C40.8108 187.733 41.5913 186.895 41.5913 185.847V179.413H47.5864C48.5623 179.413 49.3434 178.575 49.3434 177.527V174.565C49.3434 173.517 48.5623 172.679 47.5864 172.679H41.5913V166.245C41.5913 165.197 40.8108 164.359 39.8343 164.359H37.074C36.0981 164.359 35.317 165.196 35.317 166.245V172.679H29.3218C28.3459 172.679 27.5655 173.517 27.5655 174.565V177.527Z"
            fill="#FBD072" />
        <path
            d="M65.3784 136.762V145.371C65.3784 146.58 66.292 147.561 67.4187 147.561H75.4401C76.5669 147.561 77.4805 146.58 77.4805 145.371V136.762C77.4805 135.553 76.5669 134.572 75.4401 134.572H67.4187C66.292 134.573 65.3784 135.553 65.3784 136.762Z"
            fill="#C9FF90" />
        <path
            d="M0.00139141 136.762V145.371C0.00139141 146.58 0.914999 147.561 2.04173 147.561H10.0632C11.1899 147.561 12.1035 146.58 12.1035 145.371V136.762C12.1035 135.553 11.1899 134.572 10.0632 134.572H2.04173C0.914388 134.573 0.00139141 135.553 0.00139141 136.762Z"
            fill="#C9FF90" />
        <path
            d="M0.00139141 205.86V214.469C0.00139141 215.678 0.914999 216.659 2.04173 216.659H10.0632C11.1899 216.659 12.1035 215.678 12.1035 214.469V205.86C12.1035 204.65 11.1899 203.67 10.0632 203.67H2.04173C0.914388 203.67 0.00139141 204.65 0.00139141 205.86Z"
            fill="#C9FF90" />
        <path
            d="M65.3784 205.86V214.469C65.3784 215.678 66.292 216.659 67.4187 216.659H75.4401C76.5669 216.659 77.4805 215.678 77.4805 214.469V205.86C77.4805 204.65 76.5669 203.67 75.4401 203.67H67.4187C66.292 203.67 65.3784 204.65 65.3784 205.86Z"
            fill="#C9FF90" />
        <path
            d="M197.5 124.854C197.777 124.854 198 124.465 198 123.986V32.2307C198 31.7512 197.777 31.8654 197.5 31.8654C197.223 31.8654 197 31.7512 197 32.2307V123.986C197 124.465 197.223 124.854 197.5 124.854Z"
            fill="#C9FF90" />
        <path
            d="M224.2 138.781C230.007 130.797 237.985 124.279 247.487 124.57C248.402 124.661 248.466 123.104 247.53 123.076C237.557 122.746 229.176 129.512 223.1 137.86C222.535 138.636 223.626 139.563 224.2 138.781Z"
            fill="#C9FF90" />
        <path
            d="M241.835 147.085C239.064 145.95 236.045 145.51 233.093 145.819C232.71 145.859 232.429 146.224 232.466 146.634C232.501 147.045 232.862 147.351 233.226 147.307C235.963 147.026 238.771 147.43 241.335 148.483C242.194 148.839 242.699 147.438 241.835 147.085Z"
            fill="#C9FF90" />
        <path
            d="M219.406 134.871C220.715 131.484 220.947 127.669 220.059 124.128C219.821 123.17 218.474 123.563 218.714 124.517C219.522 127.741 219.31 131.214 218.119 134.298C217.97 134.68 218.14 135.118 218.493 135.276C218.854 135.434 219.258 135.252 219.406 134.871Z"
            fill="#C9FF90" />
        <path
            d="M29.4606 100.906C27.0428 94.259 27.3641 86.7314 30.3265 80.7716C30.5678 80.2826 30.2545 79.6567 29.6517 79.6737C26.1073 79.9942 22.451 80.3265 18.9914 79.3971C16.9401 78.8465 14.5755 77.6104 12.9383 75.6284C12.4467 74.5705 11.886 73.548 11.2589 72.5714C10.7978 71.859 9.76081 72.4226 10.0259 73.2432C10.3978 74.3824 10.9853 75.456 11.7505 76.4247C13.0073 79.1782 13.7645 82.1899 13.9667 85.2908C14.2512 89.6153 14.1206 91.693 11.6552 94.8771C11.2185 95.4421 11.726 96.2706 12.3752 96.0766C18.0027 94.4413 24.6856 96.7851 28.2648 101.644C28.7699 102.316 29.7525 101.696 29.4606 100.906ZM28.5384 81.2743C26.3118 86.4718 25.863 92.6113 27.2444 98.3876C23.6199 95.1268 18.5237 93.5282 13.8366 94.2309C15.5343 91.425 15.6113 89.0221 15.359 85.1833C15.2131 82.9633 14.8009 80.7847 14.137 78.7037C18.3832 81.7953 23.4513 81.7042 28.5384 81.2743Z"
            fill="#C9FF90" />
        <path
            d="M111.375 250.794C112.22 250.435 111.743 249.052 110.865 249.399C106.491 251.238 100.935 250.488 96.3678 247.452C92.43 244.836 89.0902 240.668 86.441 235.065C86.2657 234.693 85.8431 234.554 85.503 234.736C85.1604 234.923 85.0217 235.373 85.1976 235.743C92.074 250.275 103.256 254.192 111.375 250.794Z"
            fill="#C9FF90" />
        <path
            d="M99.3266 261.458C100.21 261.24 99.9361 259.793 99.0133 260.001C94.8893 261.026 90.4599 260.223 86.8703 257.791C86.5491 257.567 86.1155 257.674 85.9084 258.025C85.7039 258.374 85.7997 258.837 86.1264 259.057C90.0355 261.705 94.8539 262.571 99.3266 261.458Z"
            fill="#C9FF90" />
        <path
            d="M82.9493 107.134H163.776C164.162 107.134 164.473 106.799 164.473 106.385C164.473 105.972 164.162 105.637 163.776 105.637H82.9487C82.5634 105.637 82.2526 105.972 82.2526 106.385C82.2526 106.799 82.564 107.134 82.9493 107.134Z"
            fill="#02403A" />
        <rect x="63" y="62.8535" width="117" height="44" rx="4" fill="#559B36" />
        <mask id="mask0_700_3612" style="mask-type:alpha" maskUnits="userSpaceOnUse" x="63" y="61"
            width="117" height="45">
            <rect x="63" y="61.8535" width="117" height="44" rx="4" fill="#C9FF90" />
        </mask>
        <g mask="url(#mask0_700_3612)">
            <rect width="131.89" height="0.972696"
                transform="matrix(0.938258 0.345936 0.345936 -0.938258 60.2656 62.3828)"
                fill="#C9FF90" />
            <rect width="131.89" height="0.972696"
                transform="matrix(-0.942837 0.333254 0.333254 0.942837 183.352 61.8535)"
                fill="#C9FF90" />
        </g>
    </g>
    <defs>
        <clipPath id="clip0_700_3612">
            <rect width="259" height="281.836" fill="white" transform="matrix(-1 0 0 1 259 0)" />
        </clipPath>
    </defs>
</svg>
    